<?xml version="1.0"?>
<svg id="Layer_1" xmlns="http://www.w3.org/2000/svg" version="1.1" viewBox="0 0 1254 1254">
  
  <defs>
    
  </defs>
  <path class="st0" d="M497.9,1178.2c-94.3-21.5-89.6-40-140.9-43-103.1-5.9-136.2,68.1-209.4,49.1-58.6-15.2-90.1-76.5-110.7-116.6-15.3-29.7-41.4-81.8-36.2-251.6,3.6-119.2,6.4-198.8,26.2-317,20.2-120.7,29.7-181.2,60.4-235.2,23-40.6,97.3-155.6,221.4-180,36.5-7.1,51.8-1.5,96.6,0C592,90.1,631.9,2.2,785.8,0c17.2-.2,197.1-.2,304,122.7,34.1,39.2,51.7,80.5,84.5,157.5,16.8,39.5,47.9,113.3,66.4,208.6,30.5,156.6,9.3,278.6-20.1,447.9-16.2,93.3-24.8,140.7-48.3,175.9-66.2,99.2-201,153.1-316.1,141.2-75.2-7.8-76.9-36.9-199.3-55.3-67.5-10.1-90-4.7-159-20.5Z"></path>
</svg>