<?xml version="1.0"?>
<svg id="Layer_1" xmlns="http://www.w3.org/2000/svg" version="1.1" viewBox="0 0 1045 941">
  
  <defs>
    
  </defs>
  <path class="st0" d="M59.6,867.3c-30.3-37.2-53.4-65.4-59.6-108.1-8.4-57,18.2-106.1,39.5-145.5,16.9-31.3,38.8-60.9,66.3-118.2,0,0,23.9-51.4,8.4-69.2-2.2-2.5-7.4-7.1-12.7-15.9,0,0-5.5-9-8.6-20.2-7.6-27.1-1.4-59.1-1.4-59.1,26.3-135.7,69.2-190.2,69.2-190.2,26.6-27.9,71.1-68.3,135.4-99.4C403-10.1,500-5.2,597.1-.2c103.8,5.3,179.6,9.2,260.8,60.6,16,10.1,79.9,52.3,128.2,134,16.5,27.9,51.2,94.3,58.5,237.5,7.3,143.4,18,354.6-108.9,449.8-46.3,34.7-96.2,39-196,47.6-245.3,21.1-387-81.1-504.3-11.5-13.5,8-42.9,27.9-79.3,23.1-41-5.4-68.7-39.4-96.5-73.5Z"></path>
</svg>