<?xml version="1.0"?>
<svg id="Layer_1" data-name="Layer 1" xmlns="http://www.w3.org/2000/svg" xmlns:xlink="http://www.w3.org/1999/xlink" viewBox="0 0 1302 1208">
  <defs>
    
  </defs>
  <image width="1302" height="1208"></image>
  <path class="cls-1" d="M1302,1147.52H0s46.48-254.25,70.09-337.79,10.9-69.01,10.9-69.01l-10.9-56.3,27.24-9.08s45.4-121.68,130.76-237.9c0,0,11.07-68.08,24.23-121.88s57.23-86.99,82.98-104.15,43.37-30.08,77.65-36.11,70.45,10.47,70.45,10.47c0,0,14.92-2.33,34.74-.13s24.88,6.39,28.63,9.25,5.71,5.69,12.33,8.81c7.72,3.64,13.43,3.74,13.43,3.74,0,0,34.13-9.65,120.02-13.64,18.25-19.83,31.61-11.79,31.61-11.79,0,0,15.86-10.43,36.59,5.81,105.7-5.81,76.08-5.23,105.7-4.65,23.23-58.66,65.05-72.6,65.05-72.6,0,0,103.38-44.02,180.62,16.32,180.62-71.49,189.89-117.38,189.89-117.38v1138H0"></path>
  <polyline class="cls-7" points="763.7 1208 763.71 1207.99 763.7 1207.99 763.7 1208"></polyline>
  <path class="cls-5" d="M599.42,144.07s7.08-9.38,9.38-10.61,6.46-.15,7.08,2.46,1.08,13.38,1.08,13.38c0,0,8.61,2.62,13.54,5.69s-2.1,7.96-2.1,7.96l-9.95,3.81-1.79,16.26s-1.14,2.18-3.26,3.64-13.38-11.42-13.38-11.42l-11.31,3.21s-9.99,3.77-5.87-5.71c5.06-11.64,5.17-12.24,5.17-12.24l-7.23-11.59s-1.36-5.55,3.54-6.09,15.14,1.25,15.14,1.25Z"></path>
  <path class="cls-6" d="M706.33,96.85s3.12-12.97,6.44-17.91,6.39,0,6.39,0l7.61,10.76,14.57-2.19s13.27-1.82,6.56,9.33-7.77,11.07-7.77,11.07l6.96,13.68s3.4,9.24-4.05,8.17c-9.06-1.29-16.24-3.46-16.24-3.46l-11.49,12.29s-7.26,4.33-8.36-1.74-.95-17.11-.95-17.11l-14.63-7.61s-3.58-5.1.95-8.06,14.02-7.22,14.02-7.22Z"></path>
  <path class="cls-2" d="M806.84,123.05c.48-4.45,8.3-7.97,13.64-12.23,9.15-7.31,15.21-20.15,11.76-26.81-.97-1.87-1.8-1.53-4.83-4.27-8.77-7.95-12.82-20.82-9.87-23.35,1.04-.89,3.09-.87,4.11,0,1.01.86.77,2.33.82,4.11.15,4.93,2.46,8.75,5.69,14.11.31.51,1.9,3.15,2.21,3,.45-.22-2.02-6.46-4.11-14.31,0,0-.21-.81-.33-7.57,0-.59-.01-1.58.66-2.14.65-.54,1.8-.55,2.47,0,.49.41.61,1.04.66,2.14.07,1.71.1,2.57-.33,4.44-.52,2.28-.02,4.37.99,8.55.78,3.23,2.21,7.19,2.76,7.07.47-.1.19-3.11,0-5.1-.59-6.37-1.88-9.18-.45-11.84.26-.49.86-1.56,1.97-1.81.63-.14,1.49-.03,1.97.49.63.68.27,1.68,0,3.45-.37,2.39.11,1.64-.33,7.89-.08,1.22-.13,1.65-.16,2.63-.04,1.26-.15,4.4.16,4.44.37.05,1.89-4.02,1.97-8.88.07-4.31-1.04-6.1,0-10.03.52-1.96,1.25-3.23,2.47-3.86.91-.47,2.44-.77,3.12,0,.57.63.38,1.81,0,2.55-.63,1.22-1.73,1.13-2.3,2.3-.42.86-.23,1.74-.16,2.14.7,4.2-2.32,16.26-1.15,16.58.55.15,2.02-3.07,4.93-9.51,1.03-2.27,2.35-3.41,2.47-5.59.11-2.15-.76-3.27,0-4.28.89-1.18,3.55-1.6,4.77-.16.92,1.07.74,2.85,0,3.78-.53.67-1.13.63-1.81,1.48-.63.79-.76,1.64-.82,1.97-.67,3.44-6.06,11.75-5.26,12.31.6.42,4.32-3.8,6.74-6.55,2.72-3.09,3.51-3.55,4.11-4.93,1.01-2.32.69-3.94,1.97-4.6,1.14-.59,2.98-.13,3.62.99.18.31.41.92,0,2.3-.77,2.61-2.71,4.23-2.96,4.44-4.38,3.67-9.18,9.96-8.72,10.53.3.36,2.55-1.84,7.73-4.28,1.92-.9,3.08-1.29,4.17-2.63,1.04-1.27,1.08-2.24,2.24-2.8,1.12-.54,2.81-.45,3.45.49.55.81.13,1.95,0,2.3-.79,2.14-3.01,3.16-3.95,3.62-5.28,2.56-10.53,6.58-10.2,7.4.21.53,2.86-.04,4.93-.49,1.99-.43,2.99-.65,3.95-1.32,1.3-.9,1.41-1.68,2.8-2.3.56-.25,1.7-.76,2.74-.33,1.44.6,2.08,2.74,1.7,4.28-.26,1.04-1.4,2.35-5.76,3.29-12.43,2.68-24.09-3.85-26.15-.66-.36.56.04.67-.49,3.45-.41,2.12-.97,3.72-1.48,5.1-2.68,7.21-4.02,10.82-5.59,12.83-1.99,2.54-5.43,5.76-6.74,8.88-.45,1.07-.66,2.14-.66,2.14-.39,2.04.05,3.05,0,4.28-.13,3.37-3.86,5.79-4.6,6.25-1.13.69-3.76,2.3-6.58,1.32-2.14-.75-3.16-2.56-3.29-2.8,0,0-.91-1.67-.67-3.89Z"></path>
  <path class="cls-3" d="M147.49,413.91c3.61,2.35,11.05,2.19,13.47-1.52,1.32-2.02.65-4.31,2.66-5.69,1.03-.7,2.18-.54,2.47-.76,22.57-17.3,21.04-19.69,24.21-23.73.18-.22.56-.02.84.01.1.01.83.39,2.28,1.14,7.25,3.75,13.99,7.32,19.54,7.97.55.06,2.15.22,3.8-.57.37-.18,2.53-1.22,2.47-2.66-.06-1.27-1.84-2.22-3.23-2.47-1.85-.32-2.94.62-4.55,1.14-5,1.61-10.99-2.08-10.82-2.85.03-.14.29-.23,3.61-.19,8.24.11,10.57.72,13.85-.57,1.17-.46,3.5-1.38,3.8-3.23.18-1.12-.4-2.56-1.33-2.85-1.31-.4-2.2,1.8-4.93,3.04-1.16.52-2.05.6-6.26.57-7.48-.06-8.49.1-8.54-.19-.07-.41,1.83-.71,5.5-2.28,6.1-2.61,6.39-4.15,9.68-4.36,1.55-.1,2.85.15,3.61-.76.65-.79.67-2.2,0-3.23-.59-.91-1.68-1.46-2.66-1.33-1.41.19-2.22,1.76-2.66,2.47-3.18,5.16-12.34,6.61-12.71,5.88-.12-.23.66-.57,3.23-2.85,3.98-3.54,4.03-4.45,6.26-5.52,1.12-.54,1.81-.65,2.66-1.5.2-.2,2.12-2.18,1.33-3.8-.46-.94-1.62-1.32-2.47-1.33-1.22-.02-2.07.93-3.23,2.28-2.94,3.43-3.41,4.61-5.12,6.45-2.03,2.18-4.57,3.94-4.93,3.61-.22-.2.44-1.09,2.28-3.98,4.11-6.45,4.31-7.47,6.07-8.35,1.45-.73,2.59-.67,3.04-1.71.46-1.06-.07-2.67-1.14-3.23-1.64-.86-3.68,1.2-3.98,1.52-1,1.05-1.3,2.19-1.52,2.85-.76,2.3-2.42,3.6-5.12,6.45-1.39,1.47-2.09,2.2-2.28,2.09-.72-.42,1.15-7.9,5.12-11.01.3-.23,1.2-.9,1.71-2.11.06-.15,1.16-2.86-.38-4.16-1.01-.85-2.63-.68-3.61,0-.81.56-1.09,1.42-1.52,2.85-.42,1.38-.34,1.91-.57,3.04-.49,2.44-1.36,2.6-3.04,6.64-.8,1.92-.94,2.69-1.14,2.66-.5-.08-.2-4.92.38-8.54.38-2.38.58-3.57,1.14-4.74.44-.92.86-1.45.95-2.47.04-.45.2-2.31-1.14-3.22-.92-.63-2.38-.69-3.04,0-.63.66-.09,1.57-.19,3.98,0,.19-.13,1.08-.38,2.85-.4,2.82-.6,4.26-.95,5.69-.23.96-.43,1.59-.76,2.28-.49,1.03-.95,2.14-1.33,2.09-.64-.09-1.1-3.53-.38-6.64.49-2.11,1.13-2.37,1.14-3.98,0-.45-.04-1.43.57-1.9.31-.23.5-.13.79-.33.78-.56,1.01-2.54,0-3.25-.7-.5-1.65-.14-1.86-.07-.83.31-1.43,1.04-1.59,1.79-.12.54.08.66.07,1.39,0,.69-.19.97-.66,2.32-.43,1.22-.7,2-.86,2.92-.12.71-.11,1.13-.13,1.99-.06,2.11-.22,3.15-.28,4.18-.15,2.51-.32,5.45,1.08,8.1.99,1.87,2.81,3.68,3.45,5.84.1.34.25.96.07,1.66-.26.98-1.03,1.55-1.26,1.73-4.02,3.07-7.32,7.01-11.29,10.16-4.49,3.56-9.66,6.33-13.74,10.36,0,0-1.46,1.44-1.93,1.13-.34-.23.29-1.16-.13-2.12-.4-.9-1.46-1.26-2.06-1.46-1-.34-2.01-.33-3.05-.13-2.43.46-4.08,1.79-5.78,3.19-2.13,1.76-3.28,2.7-4.05,4.51-.33.78-1.26,2.99-.27,4.98.13.26.58,1.08,1.74,1.84Z"></path>
  <path class="cls-4" d="M62.18,350.78c.98-4.71,2.74-8.05,4.02-10.06,2.32-3.65,5.91-7.27,7.88-6.87.69.14.98,1.08,1.68,1.01.87-.1,1.37-1.49,1.51-1.84,1.66-4.36,6.63-7.34,13.66-26.81,2.34-6.47,3.11-9.8,1.42-11.74-.95-1.1-2.25-1.24-3.35-1.51-7.29-1.75-11.22-10.03-17.77-23.8-1.25-2.63-2.43-5.37-1.34-6.54.79-.84,2.62-.7,3.86,0,1.14.64,2.05,1.91,2.01,3.19-.03.91-.53,1.3-.84,2.01-.4.91-.51,2.39,2.01,6.71,2.56,4.38,5.21,7.19,6.03,8.05,2.13,2.21,5.05,4.81,5.36,4.53.21-.2-.89-1.64-1.76-2.92-4.65-6.89-2.76-9.59-7.02-20.61-.56-1.44-1.4-3.49-.44-4.98.62-.96,2.06-1.8,3.47-1.42.77.21,1.55.78,1.87,1.6.26.68.06,1.47-.36,3.02-.36,1.34-.51,1.41-.62,2.04-.28,1.6.39,2.95.71,3.64,2.09,4.55,1.69,8.57,5.24,15.28.06.11,1.09,2.06,1.33,1.95.17-.07-.21-1.14-.44-2.84-.15-1.07-.15-1.79-.18-2.58-.13-4.13-.61-5-.62-8.71-.01-4.12.57-4.09.09-5.95-.23-.89-.77-2.49-.18-2.93.26-.19.77-.18,1.07-.18.49,0,.85.13.98.18.35.13,1.1.4,1.33.98.27.67-.4,1.11-.62,2.49-.09.56-.05.96,0,1.6.35,4.18-.4-2.42.44,6.22.32,3.29.41,4.03.62,5.15.3,1.57.71,3.62,1.33,3.64.38.01.69-.72.8-.98.54-1.28.08-2.27,0-3.82-.05-.88.08-.94.37-3.11.33-2.47.43-4.35.52-6.04.15-2.99.23-4.49,0-5.69-.16-.84-.38-1.56-.44-2.84-.07-1.56-.12-2.56.56-3.38,1.05-1.24,2.93-1,3.08-.98.37.05,1.24.17,1.87.89.74.84.66,1.93.62,2.4-.08,1.07-.5,1.47-1.16,3.02,0,0-.27.64-.89,2.67-.2.65-.85,2.97-.89,10.66-.02,4.88.24,3.59.18,7.38-.03,1.98-.13,3.73.27,3.82.32.07.82-1.03,1.16-1.78.81-1.81.84-2.82,1.35-4.27.47-1.34.95-1.87,1.67-3.11,2.13-3.65,3.8-8.96,4-12.44,0-.08.08-1.33.62-2.84.38-1.06.72-1.96,1.6-2.4.8-.4,1.62-.21,2.13-.09.61.14,1.72.4,2.22,1.42.29.58.42,1.48,0,2.13-.45.7-1.17.54-1.78,1.42-.19.27-.18.37-.44,1.07-.44,1.14-.67,1.41-1.07,2.31-.44,1.01-.32,1.07-.89,2.75-.42,1.24-.48,1.21-1.16,3.02-.7,1.87-.61,1.85-1.16,3.29-.59,1.53-.68,1.52-1.42,3.38-.81,2.02-.68,1.97-1.33,3.55-1.01,2.45-1.68,3.43-1.42,3.64.31.25,1.61-.84,2.22-1.42,1.1-1.04,1.49-1.82,2.58-3.29.9-1.21.97-1.12,2.13-2.58,2.46-3.08,2.01-3.27,3.55-4.98,1.95-2.14,2.96-2.14,3.91-4.09.28-.58.69-1.41.8-2.58.13-1.31-.25-1.67,0-2.75.09-.4.4-1.73,1.6-2.4,1.37-.77,2.88-.1,3.11,0,.12.05.69.31,1.24.89.29.3.81.85.98,1.69.28,1.41-.67,2.53-.71,2.58-.62.71-1.11.55-2.04,1.33-.71.6-1.06,1.22-1.33,1.69-1.68,2.86-5.05,7.37-6.22,8.89-1.03,1.33-2.02,2.6-3.55,4.18-2.46,2.52-4.59,4.03-4.27,4.62.12.21.58.2,1.51.18.83-.02,1.84-.05,3.11-.44,1.28-.4,2.1-.95,5.6-3.55,1.97-1.47,2.95-2.2,3.29-2.49,2.19-1.89,1.86-2.12,4.18-4.18.61-.54,1.05-.9,1.42-1.6.56-1.07.27-1.61.89-2.4.08-.1.8-.98,1.95-1.07.72-.05,1.26.22,1.69.44.37.19,1.05.55,1.51,1.33.15.25.5.84.44,1.6-.08,1.15-1.08,2.11-2.04,2.49-1.14.45-1.69-.11-2.4.44-.68.53-.31,1.15-1.07,2.04-.51.61-.91.59-1.95,1.24-.92.58-1.4,1.09-2.04,1.69-1.45,1.34-3.66,3.07-5.69,4.35-1.57.99-3.17,2-5.51,2.93-1.12.44-2.08.74-2.04.98.07.4,2.97.23,3.82.18,1.11-.07,2.66-.17,4.71-.62,1.7-.38,1.16-.43,4.62-1.42.9-.26,2.25-.63,3.91-1.42,1.24-.59,1.61-.92,1.87-1.33.55-.9.16-1.55.8-2.31.49-.58,1.18-.74,1.78-.89.35-.08,1.34-.31,2.49.09.44.15,1.44.5,2.04,1.51.62,1.04.57,2.37,0,3.38-.55.97-1.54,1.54-2.4,1.69-.93.16-1.19-.25-2.49-.09-.84.1-1.47.37-1.87.53-1.01.43-1.54.9-2.04,1.24-1.6,1.1-2.49.69-5.15,1.6-1.66.57-1.92.93-3.29,1.51,0,0-5.94,2.5-15.02.18-.45-.11-.86-.19-1.69-.36-2.96-.58-3.49-.42-3.82-.18-.26.19-.41.45-.71,1.87-.46,2.16-.46,3.22-.71,4.53-.07.34-.43,1.39-1.16,3.47-.96,2.76-1.45,4.16-1.78,4.98-.76,1.91-.92,1.99-1.95,4.35-1.89,4.3-1.63,4.66-2.93,7.2-.45.87-1.33,2.24-3.11,4.98-2.53,3.89-3.79,5.84-4,6.04-.82.8-1.93,1.69-1.95,3.02-.01.69.27,1.04.53,1.69.92,2.3.02,4.76-.44,6.04-.59,1.61-1.37,2.58-2.75,4.28-1.09,1.34-2.11,2.59-3.82,3.8-.81.57-3.23,2.16-6.66,2.58-1.79.22-3.37.41-4.35-.62-1.03-1.09-.76-2.84-.67-3.31Z"></path>
</svg>