<?xml version="1.0"?>
<svg id="Layer_1" xmlns="http://www.w3.org/2000/svg" version="1.1" viewBox="0 0 1605 684">
  
  <defs>
    
  </defs>
  <path class="st0" d="M697.1,675c-20.1-1.1-193.6-11.2-397.1-71.5-54.9-16.3-140.7-44.8-213.8-122.5-50.7-53.9-67.3-101.9-73.8-125.3-8-28.9-23.3-84,0-136.1,8.7-19.4,27.8-49.6,104.4-87.1,90.6-44.3,170-54,196-57.2,358.7-43.8,351.8-43.4,323.3-40.8C935.3,7.3,919.6,6.7,972,4.4c185.9-8.2,280.5-11.6,361.4,24.5,30.4,13.6,148,70,221.4,204.2,25.3,46.2,65,118.7,50.1,204.2-16.1,92.4-86.8,147.9-121.4,174.3-88.1,67.2-190.4,94.6-786.5,63.4Z"></path>
</svg>