<?xml version="1.0"?>
<svg id="Layer_1" xmlns="http://www.w3.org/2000/svg" version="1.1" viewBox="0 0 1431 928">
  
  <defs>
    
  </defs>
  <path class="st1" d="M1,734.5c13.9-110.6,77.7-234,77.7-234,60.7-117.4,91-176.1,119.4-208.4,30.6-34.9,84.3-94.9,171.4-131.8,78.3-33.2,95-10,186.8-43.3,96.6-34.9,109.4-71.8,179.1-98.3,56.3-21.4,143.4-33.6,273.4,15.7,12.7-5.3,22.3-5.1,28.9-3.9,9.9,1.8,13.7,6.2,19.3,3.9,8.8-3.6,6.1-17.3,15.4-21.6,3.6-1.7,8.8-.5,19.3,2,0,0,3.7.9,19.3,5.9,2.2,2.5,5.4,6.5,8.9,11.7,3.1,4.7,3.4,5.7,4.6,6,6.6,1.4,11.6-27.7,25-29.5,0,0,2.5-.3,21.2,9.8,4.5,5.9,9,11.8,13.5,17.7,5.1-6.6,10.3-13.1,15.4-19.7,0,0,22.9.7,28.9,11.8,2.5,4.6.1,7.4,0,19.7-.1,13.5-.5,20.3,2.2,21.6,5.3,2.6,18.9-11.7,19-11.8h0c4.1-4.2,10.3-4,10.5-4,4.8.2,8.9,3,11.1,6.2,2.3,3.4,3.5,8.8,3.5,8.8.3,3.2-.8,6.2-3,7.8-2.2,1.5-5.7,1.6-6.8,1.1,0,0-.2,0-.2,0-.3.3,1.6,4.7,4.6,5.7,2.3.8,3.3-1.3,8.1-2.6,2.2-.6,6.1-1.6,10.1,0,.6.2,3,1.2,5.1,3.6,2.9,3.3,3.3,7.1,3.5,8.8.4,3.1-.4,3,0,7.2.3,3.1.7,3.9.3,5.7-.8,2.9-3.1,4.5-3.3,4.7-1.4.9-4,1-9.1,1,0,0-1.6,0-6.6,0-.2,2.9.4,4.9,1,6.2,1.2,2.8,2.7,3.3,3,5.7.3,2.8-1.4,5-1.5,5.2-1.9,2.4-3.8,1.4-6.6,3.6-3.3,2.7-3.3,6.3-4.6,6.2-1.3-.1-2.3-4.2-1.5-4.7.3-.2.9,0,7.6,6.7,3.3,3.3,4.4,4.4,5.6,4.1,1.9-.5,1.4-3.9,4.1-5.2,0,0,.8-.4,6.1,0,4,3.7,5.5,4,6,3.6,1.5-1.1-2.7-7.5,0-11.4,1.4-2,3.9-2.5,4.6-2.6.5,0,2-.3,6.1,1,3.2,1.1,12.1,5.6,9.1,4.1,1.9,2.2,3.7,4.5,5.6,6.7,0,0-.3.4-.3.4-2.7,3.4-4.1,5-4.1,5-.6.6-.7.7-.7.8.3.9,8.9-4.2,13.2-1,1.3,1,1.8,2.4,2.5,5.2,1.6,5.7.6,10.9.4,10.9-.2,0-.3-4.1-.4-4.1-.2,0,1.4,7.1-2,10.9-2.1,2.3-5.4,2.6-5.6,2.6-2.7.2-6.1-1-6.1-1,0,0-4.4,1.8-4.6,3.6-.2,1.7,4.5,1.7,5.1,4.1.6,2.5-3,6.2-3,6.2-2.1,2.1-2.7,5.1-1.5,7.2,1.2,2.2,4,3.2,6.1,2.6,3.8-1.2,2.5-7.1,7.1-10.3,4-2.8,9.1-1.3,10.1-1,5.2,1.4,7.8,5.4,8.6,6.7,1.9,2.9,2.3,5.5,3,10.3.7,4.4,1,6.6,0,8.8-1.5,3.3-5.5,6.1-5.6,6.2-1.7,1.7-3.4,3.4-5.1,5.2-.8,4.8,0,6.6,1,7.2,1.4,1.1,3-1,6.1-.5,3.4.5,5.6,3.6,7.1,5.7.8,1.2,2.5,3.5,3,6.7,1.1,6.4-5.6,9.5-4.9,13.7.8,4.9,9.8,6.9,13.5,8,13.6,4.2,21.4,16.3,33.7,35.5,20.5,32.1,20.9,78.6,20.9,82.5.2,28.3,1.2,52.9,2.6,74.9,6,97.2,18.5,145.3-2.6,245.9-9.8,46.8-19.5,70.1-32.1,90.5-29.7,48.3-70.5,72.5-89.7,83.6-53.1,30.7-102.4,36.8-121.1,39-185.2,21-369,13.4-369,13.4-163.4-6.8-240.8-2.3-471.1-14.5-103.3-5.5,19.3-.7-215.4-44.7-6-1.1-87.9-16.5-107.7-57.3-9.1-18.8-12-40.1-12-40.1s-2.3-17.2,0-35.6Z"></path>
  <path class="st0" d="M1431,611.5"></path>
</svg>