<?xml version="1.0"?>
<svg id="Layer_1" xmlns="http://www.w3.org/2000/svg" version="1.1" viewBox="0 0 577 530">
  
  <defs></defs>
  <path class="st0" d="M288.5,530c-64.5-2.2-118.1-7.7-158.5-13,0,0-25.8-3.4-94-29-11.8-4.4-30.3-11.7-36-28-1.3-3.6-2.2-8.4,0-26,2.8-22.4,7.4-39.1,9-45,3.4-12.5,0-1.5,12-56,13.2-59.5,19.9-89.6,27-105,8.6-18.7,37.2-48.7,34-53-2-2.6-4.4-3.2-4.4-3.2-1.2-.3-2,0-3.2,0-2.9.1-5.2-1-7.1-1.9-5.7-2.8-5-6.6-9.4-8.1-3.9-1.3-4.9,1.4-8.4,0-3.9-1.6-6-6.5-7.8-10.7-1.2-2.8-.7-2.7-1.6-4.2-2.6-4.6-6.2-4.8-8.7-8.1-2.6-3.4-2.4-7.7-2.3-10,.4-7.7,5.8-11.6,14.2-21.7,4.5-5.3,9.4-11.1,13.3-18.1,7-12.6,3.4-15.7,9.7-29.8,5.9-13.2,14.1-21.8,19.1-26.9,5.6-5.7,11.2-11.5,20.4-16.2,9.9-5.1,18.3-6,30.8-7.4,9.1-1,17.7-2,28.8,0,5.2.9,12.3,2.1,20.4,6.5,6.1,3.3,7.5,6.3,15,11.6,6.1,4.2,11.6,6.9,15.3,8.6,12-4.8,29.9-10.9,52.4-14.3,12.9-2,57.6-8.2,103.9,7.6,23.7,8.1,44.1,20.7,55.3,24.8,4.6,1.7,9.3,2.5,12.4,6.7.7.9,2,3,3.3,2.8,1.1-.2,1.2-2,2.3-3.3,1.5-1.8,4.7-1.9,11.1-.8,3.3.6,8.9,1.8,18.4,5.3,7.2,2.6,8.6,3.7,9.8,5,1.7,1.9,1.9,3.3,5,6.8,1.1,1.2,2,2.1,3,3.8,1.4,2.2,1.6,3.6,2,3.5.6-.1.5-4.4,0-7.8-.5-3.3-.7-5-1.8-6.8-.8-1.4-1.7-2.3-2.5-4.5-.3-.9-1.1-2.9-.5-3.3.6-.4,2.4,1.1,3.8,2.3,2.8,2.4,4.8,4.1,6.3,7,1.7,3.3,1.9,6.3,2,8,.4,6-1.7,9.4,0,10.8.5.4.9.3,3,.3,5-.2,7.5-.3,9.6,0,3.1.4,5.2,1.5,6.8,2.3,3.2,1.6,3.9,2.9,4.3,3.8.4,1.1.5,2.5,0,2.8-.6.3-1.2-1.5-3.3-2.8-2.2-1.3-4.8-1.3-7.3-1.3-.6,0-1.2,0-1.6,0-2.2.1-3.4.2-3.4.4-.1.6,4.9,1.2,9.8,4.3,3.4,2.1,5.3,4.5,9.1,9.3,3.5,4.4,4.9,7.3,5.5,8.5,1.1,2.3,2,4.3,2.3,7,.2,2,0,4.6,0,5-.2,3.1-.6,4.2.2,5.5.6,1.1,1,.7,2.6,2.3,2.1,2.1,3.3,4.8,3.3,4.8.5,1.2.8,2,.5,2.5-.4.5-1.4.4-2.8.2-2-.3-2.7-.8-3.2-.4-.5.4-.1,1.3.1,3,.2,1.6.2,2.9.2,3.8,5.3,6.5,10.7,14.1,15.7,22.8,16.1,28,21.5,55.1,23.4,74.1v219c-6,5.5-15.5,13.3-28.3,20.6-16.8,9.5-29.8,12.6-70,21.4-43,9.4-64.7,14.1-74.9,15.6-29.3,4.3-53.1,5.7-66.7,6.2-18.8.7-35.3.5-48.6,0Z"></path>
</svg>