<?xml version="1.0"?>
<svg id="Layer_1" xmlns="http://www.w3.org/2000/svg" version="1.1" viewBox="0 0 1254 1254">
  
  <defs>
    
  </defs>
  <path class="st0" d="M9.5,574.5c8.1-143.9,43.1-138.6,36.2-218.9-2.1-24.7-9.4-76.9,5.1-132.7,2.8-10.8,7-23.8,15.5-37.9,18.2-30.1,44.1-45.2,62-55.1,88.2-49,129.9-62.4,129.9-62.4C359.6,34.9,441.7,7.4,560.3,2.7c127.2-5,218.2-8.6,322.2,42,126.6,61.6,192.6,164.7,232.8,227.4,16.6,26,88,141,116.6,320.2,21.9,136.9,64.1,401.5-93,544.1-48.2,43.7-127.4,58.1-286.8,85.7,0,0-242.5,41.5-610.7-22.7-32-5.6-85.4-15.9-135.4-56.2-51.9-41.8-73.8-94.7-81-112.7-15.4-38.4-17.4-81.6-20.7-166.4-2.5-61.7-1.3-110.2,0-163.2,1.3-52.2,3.4-95.6,5.2-126.3Z"></path>
</svg>