<?xml version="1.0"?>
<svg id="Layer_1" data-name="Layer 1" xmlns="http://www.w3.org/2000/svg" viewBox="0 0 1254 1254">
  <defs>
    
  </defs>
  <path class="cls-4" d="M444.94,319c-.32.08-.94.08-1.35-.16-.57-.33-.78-1.19-.59-1.84.28.03.73.09,1.03-.01l.91,2.01Z"></path>
  <path class="cls-4" d="M343.89,517.96c.04-.36.83-.95.92-1.1-.06.45-.61,1.02-.92,1.1Z"></path>
  <path class="cls-6" d="M446.87,386.85l-3.72,33.93c-.27,2.47,2.44,5.43-.25,8.24,17.88,3.98,31.34,17.84,33.8,35.02-.34.62-.78,1.41-.24,1.98.46.49,1.09,1.07,1.54,1.13l4.88.72.22,2.23c-1.21,1.23-2.81,1.45-5.27,1.63-.85.06-1.14,3.23-.33,3.3l3.47.27c2.41,1.58,4.81,4.11,7.82,3.55l.11,1.93-5.7-.62c-.66-.07-1.24.21-1.22.95-1.46.4-3.03.02-5.03-.29-1.3-.2-2.06,1.64-1.65,2.52.62,1.32,3.48.96,4.57,3.78l-.69,1.92-5.44-.76c-.76-.11-1.76,1.46-1.51,2.22-.24-.73,6.46,6.47,5.96,6.12l7.83,5.5-1.03,1.16c-2.41-1.54-5.24-3.86-8.43-4.72-2.2-.59-5.31.12-6.8-2.95-1.09-.37-3.06,2.19-2.42,2.93l10.25,12,.15-.03.71.76c.09.1.19.18.3.22.2.08.38.19.53.33-.1.41-.16.94-.43,1.51l-.93-.8-.47-.47-.56-.52-.63-.64c-3.05-3.05-6.01-5.81-10.32-7.93l-1.46-1.69c-.37-.43-2.17,1.03-2.51,2.17,1.86,2.57,3.18,5.54,3.15,8.72v.77c-3.18-1.34-5.95-3.15-8.09-6.12-2.29.08-2.67,3.26-1.67,4.66l.55,1.54c.01.79,0,1.43.29,2.09l-1.91.22-3.68-5.16c-.48-.67-3.04.43-3.02,1.3.01.63.93,2.08,1.2,2.76-.66,2.73-1.63,4.51-1.17,6.78l-1.39.46c-.41-2-.96-3.19-2.98-5.09-.76-.89.19-4.04-2.9-5.07-2.52,6.78-2.87,13.94-1.97,20.69h-1.37l-.88-12.76-1.44-6.3c-.19-.82-3.29-.65-3.24.4l.15,3.21c-2.21,2.82-3.21,4.99-3.85,7.95l-1.3-.42c.66-3.03.21-5.4-.62-9.14l1.04-2.63c.19-.48-1.85-1.12-2.47-1.04-.86.11-2.78,3.55-3.48,5.45l-1.19-.72,1.09-5.23c.21-1-2.5-2.69-3.77-.87-50.28,71.92-83.83,154.01-97.53,240.82-10.04,63.62-11.95,128.82-.35,191.2.54,2.89.67,6.46,4.13,8.13.7,26.69,15.93,58.52,33.12,80.03-17-11.53-28.81-27.26-37.7-43.95l1.6.1,1.08-.87c.26-1.83-.7-3.34-1.42-5.34l-7-19.49c-1.1-3.05-1.91-5-3.07-7.5-17.64-75.26-14.62-161.7,1.7-237.73,16.55-77.07,48.95-148.75,96.06-212.28-2.34-1.41-4.46-3.4-5.26-4.94-3,4.58-7.21,2.67-11.35,5.95l-.28-1.21c2.47-1.95,3.55-4.61,5.39-7.59.36-.58,2.66-1,2.74-1.65s-1.22-2.54-1.83-2.25c-1.92.98-4.21,1.72-5.97,1.51l-.39-1.73c2-4.08,6.07-3.18,3.04-7.3-2.12,2.29-5.1,2.5-7.49,1.11l-.12-1.91c.88-2.14,2.92-3.52,6.1-4.06.71-.12.59-2.74-.38-2.78l-4.67-.17-1.24-2.18c1.24-1.28,2.72-1.68,5.21-1.93.93-.1,1.2-2.63.79-3.38-.59-1.09-2.89-.06-3.83-.5l-5.7-2.68-.19-1.71c3.17-.92,5.99-1.88,10.01-.84.8.21,1.55-3.22.6-3.48-2.15-.58-3.88-.99-4.76-2.57v-1.73l5.95.21c1.37.05,2.26-2.68,1.48-3.33-.65-.54-2.61-.41-3.32-1.2l-4.5-4.98c-.06-.07-.29-.06-.41-.2-.2-.21-.5-.36-.78-.26l.36-1.56c.43.22.92.61,1.46.69.16.02.3.12.42.25l7.38,1.19c.8.13,1.75,1.63,2.33,1.63s1.76-1.87,1.68-2.61l-4.88-6-16.54-14.15c-.14-.12-.22-.31-.27-.5-1.82-.99-3.67-1.81-4.82-4.29,2.85.73,3.83,2.41,5.38,3.62l.57.45,17.73,13.94c1.67,1.31,4.36,1.13,5.71,3.69l3.22-3.42c-4.33-.92-3.16-5.38-4.8-7.37l-16.82-20.37,1.33-.61,18.18,20.43c.96,1.08,5.05.41,5.22,3.57.03.6,1.63,1.55,2.14,1.17l1.98-1.46c-1.21-2.43-2.17-5.01-1.64-7.44.49-.19.84-.03,1.22-.1,4.72,2.36,4.08,7.44,8.42,3.71-2.08-2.71-1.76-5.88-.4-8.67h1.07c3.11,1.32,4.6,4.22,3.8,7.67,1.94.37,3.1-.24,3.26-1.18l.5-3.09c1.44-2.69,1.15-5.04.94-7.49l1.4.05c.35,4.7,2.5,11.23,3.53,11.36,4.16.52.63-3.93,4.95-7.8,2.76-11.29,3.32-22.52,4.48-33.62l1.92-.07h-.05ZM454.83,474.38c4.8-6.19,5.37-14.78-.23-19.92-3.24-2.98-7.85-3.46-12.09-1.71-2.63,1.09-5.32,3.83-7.91,7.76-2.18-3.55-5.03-6.68-8.04-7.86-4.06-1.59-8.3-1.21-11.56,1.49-5.92,4.89-5.42,13.68-.8,19.8,5.69,7.55,12.94,13.18,20.57,19.17,7.45-6.29,14.27-11.25,20.07-18.72h-.01ZM321.82,986.32l-1.2.47c1.18,1.41,1.32-.48,1.2-.47Z"></path>
  <path class="cls-3" d="M516.22,918.12c3.43,4.39,7.28,6.69,12.54,7.3.29,1.09.38,2.08.21,4.01l-27.25-.14-42.81-56.15-8.91,8.04-.06,34.82c0,2.5.52,5.14,2.03,6.5,1.83,1.65,4.65,1.85,7.36,2.31l3.01.51c.92.16,1.19,2.18.65,4.1l-43.42-.14c-.15-2.03-.19-3.54.51-3.67l3.66-.68c2.48-.46,4.97-1.03,6.4-2.29,1.7-1.49,2.18-4.02,2.18-6.7l.11-87.89c0-5.61-2.81-8.84-8.7-9.15-1.14-.06-2.67-.54-3.48-.84-.85-.32-.9-3.77-.02-3.78l42.56-.3c.52,1.52.55,2.45.36,4.45-3.3.13-6.47.65-9.88,1.79-1.99,1.08-3.3,3.39-3.3,5.84l.06,47.98c16.21-14.81,30.42-30.27,44.53-46.4,1.44-1.65,2.15-4.31,1.48-5.92-1.9-4.55-10.54-.51-8.77-7.52l35.95-.12c.41,1.25.38,2.68.07,4.29-6.8.81-12.58,3.69-17.38,8.65l-33.74,34.83,44.03,56.28h.02Z"></path>
  <path class="cls-2" d="M973.78,775.32c7.33,3.73,10.87,11.42,9.67,19.61-1.25,8.53-6.9,14.92-14.23,19.36-21.11,12.78-65.53,9.66-66.89-10.89-.38-5.73,2.31-10.52,7.32-13.78l9.72-6.34c-4.21-1.3-7.56-2.77-9.88-5.73-3.79-4.83-2.8-11.64,1.95-15.09l10.7-7.77c-10.07-4.46-15.76-13.04-16.01-23.14-.26-10.16,4.85-19,14.1-24.42,12.33-7.23,26.56-5.4,39.95-1.3h22.36c.24,1.28.15,3.71-.17,5.82l-15.3,1.45c5.37,6.88,7.73,14.29,5.8,23.16-1.49,6.85-6.75,13.57-14.14,17.52-9.58,5.13-20.09,4.56-30.92,3.1-4.32-.58-8.66,5.72-7.56,9.47,1.01,3.45,4.53,4.89,7.8,4.94l30.45.47c5.35.08,10.55,1.17,15.27,3.58v-.02ZM953.96,745.36c4.36-9.02,3.9-19.65,0-28.23-3.07-6.75-9.43-10.2-16.41-9.48-6.34.65-12.06,5.27-13.72,12.32-3.45,14.71,1.81,31.67,14.92,32.95,5.81.57,12.26-1.46,15.21-7.56h0ZM968.5,791.07c-2.99-4.62-8.93-5.77-13.7-5.89l-28.99-.76c-5.74,2.53-9.51,7.91-9.38,14.07,1.17,17.77,28.88,20.7,45.24,12.36,7.18-3.66,11.48-12.6,6.83-19.77h0Z"></path>
  <path class="cls-3" d="M691.92,922.57c-17.63-16.76-14.74-53.48,8.02-66.62,12.45-7.19,26.29-7.37,39.73-1.12l.32-31.65c.02-2.16-.65-4.59-1.89-5.78-3.66-3.54-11.34.05-9.49-6.22l27.8-4.68-.02,110.43c0,2.28.66,4.16,1.96,5.23,3.73,3.08,9.3-.44,9.14,4.04-.05,1.3-1.04,1.3-2.53,1.51l-21.83,2.98c-2.06-3.16-1.72-6.59-2.74-11.51-12.84,13.78-34.12,17.04-48.47,3.4h0ZM740.25,912.98l-.27-47.78c-8.18-10.52-24.33-12.77-33.66-2.94-11.66,12.28-11.52,41.59.96,53.52,9.39,8.97,24.94,7.35,32.97-2.8Z"></path>
  <path class="cls-2" d="M480.38,782.65c-15,3.55-29.37,1.49-43.54-2.65l-8.47-1.49-2.16-29.64c.92-.72,2.94-.75,4.33-.28,2.24,6.65,4.37,13.26,9.26,18.67,8.79,9.7,22.63,13.23,35.09,10,8.91-2.31,14.53-8.9,15.62-16.88,1.27-9.35-2.82-17.75-11.39-21.66l-24.67-11.24c-7.35-3.35-14.41-7.01-19.83-13.13-7.35-8.31-9.32-19.36-5.45-30.43,7.72-22.14,36.67-25.42,59.46-18.35,3.94,1.22,7.22,1.01,11.96-.89l.98,30.59c-1.37.26-2.75.32-3.48,0-1.85-.81-3.4-16.69-17.01-23.52-9.57-4.8-19.95-4.81-28.25-.1-6.62,3.75-9.28,10.65-8.88,17.7.38,6.64,4.07,13.01,10.74,16.08l22.6,10.41,16.25,8.6c12.19,8.27,16.9,22.45,12.16,36.82-3.56,10.8-13.54,18.59-25.32,21.38h0Z"></path>
  <path class="cls-2" d="M723.42,717.64c.9-2.41.73-5.02-.11-6.37-2.79-4.51-10.54-.55-8.67-6.99h27.14c.29,1.19.25,2.22.06,3.64-5.95.52-8.6,4.46-10.64,9.58l-26.17,65.55c-1.8.58-3.38.49-5.69.19l-20.88-50.79-21.19,50.67c-2.01.48-3.58.5-5.77.08l-28.01-68.53c-3.65-8.93-12.68-3.74-9.56-10.33l35.51-.02c.59.55.64,2.32.26,2.95-1,1.69-5.75.77-7.89,3-.98,1.02-1.11,3.34-.42,5.12l18.2,47.09,15.65-37.59-5.41-13.71c-4.35-4.13-9.82-1.32-8.5-6.8l36.65-.03c1.54,5.66-5.38,3.05-8.24,5.91-1.28,1.28-1.49,3.6-.74,5.51l17.97,45.74,16.42-43.87h.03Z"></path>
  <path class="cls-2" d="M866.06,728.68c-.05-8.44-5.16-14.24-12.94-15.32-8.65-1.2-16.74,1.69-23.36,7.9l-.11,49.75c-.02,7.86,8.06,6.23,10.24,7.61.59.38.56,1.64.49,3.68h-37.89c-1.81-6.35,4.94-2.9,8.95-6.37,1.5-1.3,1.91-3.61,1.91-5.93l-.03-50.98c0-10.08-13.68-4.59-10.52-11.17l26.6-5.46.63,13.06c7.59-6.55,15.21-11.93,24.82-13,14.4-1.6,27.27,7.36,27.36,22.12l.3,46.42c.05,8.09,8.17,6.17,10.41,7.6.6.38.54,1.69.46,3.7l-37.17.08c-2.15-7.85,10.15-.99,10.09-11.37l-.24-42.32h0Z"></path>
  <path class="cls-3" d="M803.4,868.95l.03,49.08c0,4.61,2.92,7.18,7.7,7.29.83.02,2.32-.08,2.67.45.37.56.61,2.2.25,3.64l-37.33-.13c-.79,0-.94-2.98-.24-3.34,3.21-1.63,11.01.31,10.96-7.93l-.34-53.02c-.02-3.5-4.02-4.89-7.01-5.26l-3.01-.37c-.76-.09-1.3-2.32-.78-3.44l26.25-5.43,1.03,12.93c11.8-10.8,25.17-16.84,39.01-10.86,7.45,3.22,12.63,10.62,12.69,18.94l.38,46.5c.07,8.67,9,6.07,10.75,8,.62.68.4,3.47-.53,3.46l-36.08-.07c-3.05-7.04,9.75-1.18,9.69-11.38l-.28-42.93c-.05-7.05-4.89-12.63-11.46-13.91-9.17-1.79-17.65,1.26-24.35,7.78h0Z"></path>
  <path class="cls-3" d="M610.19,918.35c0,4.58,2.88,5.99,6.97,6.74l2.83.52c.84.15,1.44,2.38.67,3.54l-37.34-.1c-2.19-6.71,10.85-.61,10.81-11.05l-.21-52.88c-.02-5.8-8.39-4.89-10.46-6.11-.74-.44-.74-3.07.23-3.27l25.76-5.31,1.1,13.23c7.92-7.83,16.14-12.75,26.38-13.35,13.38-.79,25.03,8.02,25.12,21.81l.3,46.35c.03,4.15,2.67,5.92,6.99,6.58l2.94.45c.82.13,1.17,2.09.63,3.93l-34.27-.02c-1.14,0-2.32-.25-2.65-.88-.3-.57-.24-2.31.16-2.8s1.85-.5,2.68-.54c4.65-.21,7.49-2.57,7.46-7.17l-.31-42.84c-.05-6.95-4.46-12.58-11.16-13.97-9.23-1.91-18.27,1.18-24.66,7.89l.02,49.27v-.02Z"></path>
  <path class="cls-3" d="M323.28,950.05c-3.46-1.67-3.6-5.25-4.13-8.13.47,0,.91-.67.92-1.97.23-30.76,12.28-58.41,31.51-83.39-12.35,6.85-18.78,19.39-25.62,30.46-.84-1.54-4.39-3.02-4.72-1.55-.89,3.95-1.06,7.15.3,9.63,1.06,1.93-.19,3.93-.45,5.86h-2.04c-.71-32.82,7.9-54.68,36.67-73.21,6.96-4.48,13.52-8.37,19.56-15,1.89,33.76-8.08,64.46-32.45,88.12-13.7,13.3-20.05,30.62-19.56,49.2v-.02Z"></path>
  <path class="cls-2" d="M607.29,740.43c1.27,27.21-19.69,45.74-45.67,43.96-22.84-1.56-38.44-18.32-37.76-41.41.7-24,18.07-40.9,42.22-40.89,22.23.01,40.13,15.15,41.22,38.33h0ZM571.51,778.35c20.76-4.19,22.11-44.26,10.36-61.07-4.89-6.99-11.81-10.38-20.23-9.41-18.76,2.16-21.82,27.32-18.29,46.6,2.88,15.74,13.12,26.91,28.17,23.88h-.01Z"></path>
  <path class="cls-3" d="M939.76,913.28c1.45-1.24,3.74,1.06,3.28,1.78-7.21,11.38-19.83,16.32-32.99,16.08-17.33-.31-31.35-11.08-35.16-28-4.61-20.47,3.48-42.78,22.26-50,11.75-4.52,24.14-3.89,33.89,2.75s13.43,18.73,12.14,30.1l-52.67.32c-.55,10.54,2.31,22.18,11.24,29.03,11.03,8.47,27.36,7.09,38.01-2.06h0ZM926.78,880.71c.46-7.61-.94-13.51-4.52-19.03-5.85-7.48-16.97-7.98-23.8-1.16-5.38,5.38-7.76,12.79-7.73,20.47l36.05-.28h0Z"></path>
  <path class="cls-3" d="M1007.72,916.49c-8.14,18.19-33.75,16.41-51.91,10.08l-.12-21.05c1.66.01,2.75-.06,3.22.19,1.51.81,3.38,21.33,24.14,20.02,6.61-.42,11.99-4.11,13.02-10.28s-1.78-11.92-8.1-14.55l-18.2-7.57c-8.92-3.71-14.04-11.53-13.84-20.84.19-8.85,5.53-16.6,14.68-19.88,7.81-2.8,16.47-2.31,24.72-.81l9.42,1.71-.05,19.13c-.1.64-2.56.91-3.09.49-2.14-1.72-3.25-18.56-20.59-17.34-6.09.43-10.61,3.6-11.8,9.11s1.25,11.35,7.15,13.86l20.25,8.6c11.33,4.81,16.47,17.15,11.11,29.12h0Z"></path>
  <path class="cls-3" d="M1072.66,917.36c-8.65,17.7-33.74,15.23-51.71,9.16l.08-19.47c0-1.69,1.53-1.58,2.23-1.53,1.39.1,2.08,1.43,2.37,2.77,2.7,12.22,13.06,19.4,25.39,17.04,5.98-1.15,10.13-5.42,10.7-11.2.55-5.57-2.27-10.62-8.01-13.05l-19.47-8.23c-8.68-3.67-13.3-11.46-12.98-20.31.32-8.9,5.52-16.38,14.58-19.86,8.98-3.45,19.03-2.82,28.33.15l5.81.66.06,19.26c-.22.65-3.22.88-3.44.28l-.96-2.62c-2.03-5.54-4.96-10.68-9.22-12.7-6.05-2.88-12.59-2.74-17.76.86-3.73,2.6-4.73,7.2-4.18,11.24s3.66,7.26,7.79,9.03l20.18,8.65c11.42,4.9,16.01,18.01,10.22,29.85v.02Z"></path>
  <path class="cls-2" d="M751.97,782.28c-1.15,0-1.3-3.06-.63-3.52,2.23-1.53,10.68.32,10.68-7.83v-51.86c.02-9.32-9.83-6.09-10.94-8.65-.48-1.11-.26-2.66.94-2.88l26.4-4.86.03,68.28c0,8.09,9.63,6.56,10.48,7.75.39.55.3,2.25,0,3.69l-36.97-.12h.01Z"></path>
  <path class="cls-3" d="M535.93,929.3c-1.16,0-1.05-2.84-.39-3.29,2.52-1.72,10.68.48,10.68-8.01l.04-51.95c0-4.03-3.65-5.84-7.25-6.31l-2.97-.39c-.77-.1-1.33-2.28-.77-3.41l27.12-5.35v67.42c-.01,8.21,7.86,6.39,10.54,7.61.67.3.81,1.71.53,3.73l-37.54-.04h.01Z"></path>
  <path class="cls-6" d="M629.54,1015.75c-13.25.52-23.44-8.23-24.27-20.24s8.24-22.79,20.98-23.96,24.24,7.5,25.27,20.05c1.03,12.61-8.27,23.61-21.98,24.14h0ZM617.24,1004.3c5.69,6.34,15.14,6.1,20.92,1.31,5.99-4.97,7.22-14.12,2.78-20.84-4-6.05-12.83-8.78-19.95-4.75-8.6,4.87-10.69,16.55-3.75,24.28Z"></path>
  <path class="cls-1" d="M760.88,205.42c-7.35,3.97-14.87,5.03-22.67,7.25l-6.37-18.27c-1.5-4.29-1.1-9.32,1.55-13.02s7.54-4.53,11.29-2.62,5.53,6.31,5.33,11.61c4.96-3.99,12.39-4.72,16.08.46s.35,11.59-5.22,14.59h0Z"></path>
  <path class="cls-6" d="M574.19,1013.78c-9.28,4.02-19.45,1.27-26.9-4.6,1.15-2.26,2.85-3.58,4.89-5.06,5.13,4.14,11.59,6.3,17.93,4.16,2.33-.79,3.65-2.83,3.65-4.77,0-2.05-1.26-4.08-3.62-4.8l-13.72-4.17c-3.44-1.05-6.04-3.59-7.12-6.34-1.27-3.23-.82-6.88,1.07-9.88,5.8-9.21,19.16-8.21,29.38-2.11-.83,2.44-2.13,4.09-4.08,5.99-4.69-3.2-10-5.26-15.55-3.4-2.27.76-3.49,2.76-3.52,4.69s1.27,3.82,3.58,4.51l13,3.9c4.78,1.43,7.83,5.4,8.2,9.96s-1.92,9.63-7.18,11.91h-.01Z"></path>
  <path class="cls-6" d="M779.15,1015.02l.85-38.97c0-.85-.69-1.26-1.16-1.19-.59-.55-.48-2.54.1-2.57l31.63-.19v6.59l-24.48.1.21,11.07,21.39.24.06,6.51-21.67.18.03,11.68,25.33.13-.11,6.42h-32.18Z"></path>
  <path class="cls-6" d="M710.92,1003.98c2.09.12,4.13,2.25,5.35,4.58-9,9.52-25.42,9.73-34.77.04-6.43-6.66-7.2-16.2-3.63-24.11,3.63-8.05,11.7-13.1,21.12-13.05,6.52.03,12.3,1.93,16.94,6.37-1.33,2.31-2.78,3.93-5.14,5.25-6.43-6.01-16.12-6.75-22.46-.44-5.55,5.53-6.05,15.43-.3,21.69s15.99,6.42,22.88-.33h.01Z"></path>
  <path class="cls-1" d="M936.26,180.71l-16.63,8.08c-5.29-9.53-13.3-20.54-6.72-27.3,1.95-2.01,5.37-2.8,8.34-1.25,2.5,1.3,4.13,4.17,5.14,8.32,4.01-3.34,10.03-4.81,13.34-.34,3,4.07,1.08,10.28-3.47,12.49h0Z"></path>
  <polygon class="cls-6" points="855.36 1014.95 847.63 1015.17 847.7 978.91 833.69 978.72 833.74 972.16 869.27 972.08 869.32 978.75 855.41 978.91 855.36 1014.95"></polygon>
  <path class="cls-6" d="M931.76,972.6l-16.47,25.64-.48,16.63c-2.42.39-5.18.43-7.61-.07-.7-5.07,1.55-11.68-.56-16.41l-16.75-25.83c2.67-.7,5.7-.49,8.67-.16l12.57,18.6,12.19-18.6c2.64-.26,5.07-.5,8.43.2h0Z"></path>
  <path class="cls-1" d="M1037.93,254.96c5.16,9.47-9.97,14.81-23.36,16.53-2.26-6.69-5.64-13.21-5.41-20.25.16-4.9,4.14-8.32,8.3-8.06,4.55.28,7.23,4.58,7.23,10.49,4.57-3.21,10.73-3.3,13.23,1.29h.01Z"></path>
  <path class="cls-1" d="M1050.97,1005.18c-4.9-3.78-9.43-7.35-12.53-12.49-2.07-3.43-1.08-8.47,1.72-10.03,4.03-2.24,8.45-.46,11,4.44,2.05-3.9,5.3-6.15,8.67-5.33,3.96.96,6.19,5.54,4.29,9.66-2.66,5.76-8,9.62-13.16,13.75h.01Z"></path>
  <path class="cls-1" d="M447.13,992.03c-2.89,5.66-8.22,9.33-13.02,13.11-7.43-5.72-15.87-12.88-12.99-19.52,1.17-2.7,3.48-4.08,6.33-3.8s4.99,2.18,7,5.49c1.49-4.2,5.02-6.27,9.01-5.24,3.37.87,5.85,5.67,3.66,9.96h0Z"></path>
  <path class="cls-6" d="M653.04,249.33c.34,2.72.17,5.55,2.22,9.15,1.24-1.79,1.18-3.72,1.87-5.46l1.39.16c-.66,1.56-1.23,3.41-.37,6.41l6.54-5.81.56.9-5.44,6.78c.27.5,1.61.83,2.64.26.15.39.22.8.22,1.28-.27.19-1.55,1.21-1.12,1.53.89.68,2.22.65,2.67.52l-3.31,1.9-1.52.93c-1.47-.8-5.19-.71-6.67.88-14.48,15.6-29.85,29.53-47.88,41.1-2.79,7.4-10.11,11.68-18.04,10.42,2.8-7.66,9.49-11.59,17.18-11.83,18.01-11.85,33.66-25.66,48-41.47l.5-9.2-1.26-8.59,1.82.13h0Z"></path>
  <path class="cls-1" d="M862.72,335.31c-5.1,3.34-10.8,3.85-16.39,5.36-3.08-8.51-7.14-18.67-1.71-22.49,1.85-1.31,4.87-1.34,6.79-.06,2.21,1.48,2.73,4.39,3.11,7.62,3.71-2.28,7.45-2.5,9.99.15,1.99,2.08,1.77,7.08-1.79,9.41h0Z"></path>
  <path class="cls-6" d="M645.86,1071.35c-1.06.86-3.46.86-4.2-.04l-14.51-17.72-.39,18.14-4.37-.06-.02-25.91c.84-.37,3.74-.8,4.63.28l13.83,16.65.65-17.12,4.46.05-.09,25.72h.01Z"></path>
  <path class="cls-6" d="M1031.99,162.1l-.39,1.99c1.41,1.53,3.53,2.28,5.36,2.91l-.02,1.32c-1.88-.72-4.06-.79-6.05-2.3-1.85-1.42-3.85-1.27-5.64-.82-2.06.53-2.84,2.11-4.08,4.04-7.54,11.77-15.73,22.51-26.05,32.01-1.25,7.17-6.81,12.53-14.55,12.85.68-7.17,6.21-12.52,13.47-13.87,10.73-10.5,19.65-21.91,27.63-34.75,1.42-2.28-.33-6.33-.52-8.35.37-.6,1.24-1.51.82-2.32l-.94-1.82c-.18-.36.3-1.27.9-1.18.25.74.16,2.13,1.42,3.5.42.45,1.9-.66,1.78-1.45l1.88.03-.48,2.96c-.54.05-.63.56-.42.8.27.32,1.03.53,1.37.33s.58-.52.59-.97l5.27-6.28.93.96c-1.08,2.14-3.7,3.27-4,7.16l12.95-4.88c-3.91,3.6-8.19,5.33-13.29,7.23.42.87,1.35,1.01,2.05.89h.01ZM1029.5,158l-.5.5.5.5.5-.5-.5-.5Z"></path>
  <path class="cls-2" d="M767.07,668.74c6.19-1.35,11.32,2.97,12.44,8.07,1.31,5.97-2.18,11.42-8.31,12.56-5.19.97-10.61-1.99-12.19-7.63-1.44-5.15,1.52-11.57,8.06-13Z"></path>
  <path class="cls-6" d="M824.11,1072.31c-9.05.97-15.85-6.02-15.64-13.85.24-8.72,7.76-14.39,16.55-13.24,7.2.94,11.68,6.58,11.76,13.3s-4.73,12.94-12.68,13.79h.01ZM820.04,1049.57c-5.93,1.75-7.74,7.71-6.25,12.13,1.7,5.05,6.78,7.42,11.49,6.14,5.28-1.43,7.73-6.71,6.31-11.9-1.24-4.54-5.95-8.04-11.55-6.38h0Z"></path>
  <path class="cls-6" d="M690.06,1061.55c-1.23-1.97-8.29,2.01-6.79-4.05l11.11-.24.04,11.29c-5.73,4.2-13.19,5.24-19.36,1.28-5.41-3.47-6.96-10.52-4.78-16.18s8.07-9.06,14.77-8.44c2.95.27,6.84.94,7.94,3.53.45,1.06-1.87,3.29-2.64,2.78-4.44-2.93-10.26-3.62-13.72.57-2.94,3.57-3.44,9.5.18,13.47,2.98,3.27,10.57,4.18,13.39-.14.67-1.02.23-3.29-.14-3.88h0Z"></path>
  <path class="cls-6" d="M883.04,1071.84c-10.4,2.37-8.09-12.77-18.02-8.81l-.24,8.63-4.49.1.06-26.25,13.53.06c4.51.02,7.75,3.27,8.39,7.45.59,3.82-1.84,7.34-6.59,9.07l7.36,9.76h0ZM873.42,1058.41c2.54-.07,3.81-2,4-3.93.2-2.08-.74-4.26-3.21-4.72-3.07-.57-6.24-.62-9.11.06l-.12,8.83,8.44-.23h0Z"></path>
  <path class="cls-6" d="M923.98,1060.26l-12.26.42c-2.02.07-1.95,6.71.05,6.79l14.56.56c-.23,1.04-.18,2.09.13,3.59l-20.77.26.22-26.27,19.66-.12c.28,1.1.38,2.03.21,3.91l-14.09.28c-1.53.03-2.08,5.46-.46,6.2,3.54,1.62,8.56.28,12.19.63.34.41.78,1.55.55,3.75h.01Z"></path>
  <path class="cls-1" d="M706.29,460.88c-5.51,2.55-11.55,1.44-16.81,1.47-2.59-11.03-1.16-21.59,5.85-20.81,3.18.36,5.35,3.13,5,6.61-.4,3.98,7.46.41,9.24,5.69.78,2.32-.18,5.6-3.27,7.04h0Z"></path>
  <path class="cls-3" d="M550.06,817.62c5.92-2.21,11.45.98,13.2,6.32s-.52,11.18-6.61,13.07c-4.47,1.39-10.4-.58-12.52-5.55-2.13-5-.16-11.56,5.93-13.84Z"></path>
  <path class="cls-6" d="M749.46,1014.76c-2.1.5-4.63.48-7.67.08l-.02-42.21,7.67-.2v42.33h.02Z"></path>
  <path class="cls-6" d="M710.05,359.14c.72,1.37,2.61,1.46,3.91,1.76.49.6.64,2.16.81,2.86.22.93,1.32,1.59,2.43,1.24,1.2-.37,2.58-.02,3.8-.02v1.02c-.48.05-1.33.25-1.77.09-1.55-.58-2.9.59-4.13.82-2.16.4-5.18-.3-7.11,2-10.95,13.07-22.49,24.99-36.66,34.46-2.67,7.5-10.01,12.45-17.77,11.13,2.38-8.22,9.52-11.99,17.04-12.49,13.2-9.27,23.98-20.1,34.4-31.99,2.19-2.5,3.78-4.11,2.28-7.47,1.18-1.41,1.56-3.4,2.62-5.07-.2.51-.06,1.27.14,1.65h.01Z"></path>
  <path class="cls-6" d="M715.87,360.25c-.62.34-1.28.52-1.91.65l-.29-3.07c2.79-.06,3.8-2.4,6.22-4.44.15,3.75-2.75,4.85-4.02,6.85h0Z"></path>
  <path class="cls-6" d="M737.18,1067.44c-1.49-3.4-5.72-1.9-7.98-2.12-3.87-.38-6.37.15-7.36,3.88-.22.83-.61,1.88-1.11,2.18-.81.5-2.39.65-4.55.28l11.33-25.98c1.39-.33,3.71-.57,4.74.15l11.47,25.34c-.7,1.23-2.71.8-3.93.47-1.44-.39-1.79-2.34-2.61-4.2h0ZM734.42,1061.27l-4.47-10.11-4.69,10.19c3.53.31,6.05.52,9.16-.08Z"></path>
  <path class="cls-6" d="M563.93,1057.64c3.28.98,5.19,3.44,5.44,6.14s-1.16,5.98-4.2,7.29c-8.88,3.83-20.32-2.64-15.46-4.98.76-.37,1.87-1.26,3.4.14,2.73,2.49,10.58,3.61,11.22-1.18.73-5.52-14.09-3.62-15.07-10.71-.44-3.2.69-6.53,4.02-7.98,4.42-1.93,10.02-1.61,14.12,1.4,1.18.87-.65,3.86-2.12,3.21-5.54-2.47-10.27-2.68-11.1.53-.43,1.66.57,3.43,2.51,4.01l7.22,2.15.02-.02Z"></path>
  <path class="cls-6" d="M924.09,256.97c-1.88-.15-5.59-1.44-7.9-.05-14.05,8.44-28.14,15.69-44.07,19.89-4.66,5.82-12.31,7.12-19.19,4.4,4.03-6.35,11.45-8.37,18.44-6.03,15.94-4.36,30.64-11.47,44.75-20.2l1.89-6.19c1.69-1.16,3.74,1.2,4.53,1.33,2.83,2.04,1.68,4.74,1.54,6.85h.01Z"></path>
  <path class="cls-6" d="M771.71,1063.93c-1.97,1.74-.82,5.72-.79,7.65-1.93.53-2.99.36-4.81.08v-26.06l12.6.02c4.96,0,8.09,3.84,8.31,7.9.27,5.06-2.65,8.65-8.14,9.53-1.72.28-5.26-.62-7.17.88ZM779.93,1058.4c2.21-.9,2.42-3.29,2.19-4.82-.64-4.18-5.88-5.16-10.81-3.56-1.25,2.66-.6,6.19-.32,9.03,2.94.42,5.98.56,8.94-.65Z"></path>
  <path class="cls-6" d="M805.24,246.18c-1.25,2.86-1.99,6.16-2.29,10.23l11.07-9.8-8.52,10.75c-.55,1.22.95,3.42,1.53,4.36.12.28,0,1-.03,1.26-.18,0-.38-.06-.5.03l-.94.71.46,1.16c-1.57-1.45-5.64-2.82-7.54-.67-9.49,10.72-19.35,20.24-31.37,27.8-2.67,5.73-8.38,8.95-14.66,8.34,2.01-6.82,8.11-9.46,14.44-9.97,11.65-7.9,21.99-16.82,30.63-27.59,2.05-2.56-2.41-8.14-.52-8.82-.02.48.17.76.49,1.32s1.12,1.13,1.38.02l.49-2.04c.24,1.04.52,1.99,1.35,2.98l3.27-10.08h1.28-.02ZM805.32,262.14c.41.17.63.28.71.37-.1-.1-.32-.23-.71-.37Z"></path>
  <path class="cls-6" d="M825.88,398.53l.1,1.26-13.73,1.18c2.86,2.05,5.33,3.08,8.09,4.23l-.29,1.24c-1.45-.46-3.12-1.12-4.96.6,3.28,3.57,6.85,5.67,10.78,7l-.12,1.38c-6.65-2.57-12.78-6.58-16.88-12.97-1.7-.24-4-1.38-5.69-.53-12.03,6.02-23.65,11.96-36.12,15.47l-.85-1.27c12.77-3.86,24.89-9.52,36.93-16.08l1.88-3.83c1.36-2.78,2.64-.05,4.77-2.34l2.06-2.21.35,1c-.54.85-1.44,1.88-1.25,3.5l19.5-8.35c.02.07.31.51.6.74l-19.51,9.92c4.86.92,9.76.68,14.35.08v-.02ZM811.5,400l-.5.5.5.5.5-.5-.5-.5Z"></path>
  <path class="cls-3" d="M927.99,251.96c.46-.06.95-.35,1.35-.6.83.21,1.73-.17,2.47-.23l-.02,1.85-6.26,1.43c4.48,2.41,9.34,3.34,14.14,3.7l.03,1.68c-3.09.09-6.1-2.21-10.55-.18,8.06,8,19.17,7.65,30.65,9.33-13.3,2.87-26.06-2.41-35.85-10.59.25-.69.19-1.16.14-1.37.14-2.11,1.29-4.81-1.54-6.85-.79-.13-2.84-2.49-4.53-1.33-1.71-.59-1.55-2.53-2.23-3.67.18-.5.58-.85.94-.74l1.75.51c.83.24,1.6.47,2.5.26-.13.67-.71,1.78.5,3.11l7.6-14.05c.49-.11,1.21.04,1.22.69-2.78,4.32-5.38,8.67-6.43,14.83l24.33-17.52c.43.13.87.32,1.16.65l-24.58,18.85c1.44.68,2.46.36,3.22.26v-.02Z"></path>
  <path class="cls-5" d="M483.11,470.11l-.22-2.23c11.92.48,23.63-.06,36.17-.87,3.07-.2,7.9.79,10.3-1.78,2.85-4.64,4.78-10.51,10.75-12.44-2.99,3.52-6.2,5.69-7.39,10.74,4.58-1.57,7.1-5.14,11.86-5.06-4.11,3.25-8.13,4.04-11.27,7.27l13.23-.04c-4.32,2.51-8.09,1.1-13.03,2.35l8.74,4.26c.97,0,3.5-1.21,4.09,1.4l-11.51-2.19c.7,2.38,2.12,2.94,3.16,3.93.12.11.24.32.46.42,1.84.9,4.11.82,5.69,2.9-2.64.48-4.53-.9-6.07-2.1-.17-.13-.41-.46-.71-.52-3.42-.72-4.85-4.94-7.81-6.85-3.98-2.57-9.84-.45-14.38-.29l-32.07,1.09h.01Z"></path>
  <polygon class="cls-3" points="382.3 484.08 381.95 486.03 293.07 512.87 293.04 511.05 382.3 484.08"></polygon>
  <path class="cls-1" d="M596.29,270.17c-1.38,4.55-5.14,7.62-8.57,10.96-3.81-2.46-7-5.44-9.79-8.95-1.92-2.43-.7-5.83,1.31-7.28,2.78-1.99,5.44.84,7.6,2.47,1.57-1.59,3.88-4.19,6.5-3.28,1.65.58,3.91,2.91,2.94,6.08h.01Z"></path>
  <polygon class="cls-3" points="583 493.37 582.81 495.22 493.96 481.63 494.13 479.95 583 493.37"></polygon>
  <path class="cls-1" d="M554.39,384.92c-4.15,2.21-8.61,2.59-12.7,2.84-1.55-4.8-3.16-9.38-1.8-13.91.78-2.59,3.49-3.46,5.09-3.2,3.09.51,3.24,3.78,4.26,6.02,1.81.19,5.39-.85,6.73.95,1.52,2.05,1.45,5.69-1.58,7.3h0Z"></path>
  <path class="cls-3" d="M541.04,332.79l1.3.53c-4.64,3.98-9.91,6.51-15.8,9.42,6.79,1.67,12.57.24,18.29-1.14v1.33c-4.37,1.74-8.59,1.84-14.62,3.11,5.56,3.38,12.02,4.09,17.85,3.02l-.15,1.7c-7.95.9-16.42-.77-23.1-5,.5-1.57.67-3.16.04-4.85-.47-1.28-1.97-2.04-3.48-2.45l2.29-.54c1.16-.28,2.25-.89,3.19-2.14l14.58-19.43c.43.36,1.03.29,1.21.32l-15.7,22.76c6.35-.56,10.42-3.62,14.11-6.64h0ZM526.5,339l-.5.5.5.5.5-.5-.5-.5Z"></path>
  <path class="cls-6" d="M1021.06,993.88l-65.03-.06c-.59,0-1.9,0-2.17-.22-.36-.31-.23-1.13-.08-2.41l67.69.25c.44,0,.37,2.43-.41,2.43h0Z"></path>
  <path class="cls-3" d="M386.82,443.68l-.36,1.56-85.59-44.53.1-.86c1.89.2,3.43.93,5.49,2l80.35,41.83h0Z"></path>
  <path class="cls-6" d="M341.7,336.08c-.04,1.86-.58,3.74,0,5.62-.44.7-.63,1.47-.67,2.33-.03.71-.91,1.8.41,3.49,2.28-3.61,4.59-7.37,5.75-11.42l1.74-.06c-3.86,13.95-13.41,15.21-5.62,24.26l-.61.98c-2.55-2.99-5.71-4.66-9.72-4.38-.48-.35-1.36-.92-1.97-.93l-11.06-.12-.06-1.92,11.06.46c-.02.57.49.69.72.48.4-.36.52-1.04.34-1.39-.21-.42-.56-.6-1-.5l-3.01-1.12.37-1.47c1.2.49,2.73,1.24,5.07.85l-10.65-12.42.64-1.19,10.97,11.48c.32.34.75,2.06,1.06,1.73l1.57-1.67c3.25-3.47,3.3-9.48,3-14.19l1.69,1.08-.02.02Z"></path>
  <path class="cls-6" d="M394.67,329.23l1.27-.06,3.29,7.23c1.04-1.39.81-2.72,1.03-3.98l1.86-.28c-.04.96-1.12,2.28.07,4.2,3.4-3.1,5.05-6.69,7.5-10.67.48,4.13-1.97,5.82-3.56,10,4.13-.29,4.6-3.12,8.29-3.83-2.54,4.48-6.49,5.86-10.5,8.28-1.62.97-2.66,4.95-2.15,6.65l2.46,8.15c-.2.28-.09,1.05-.19,1.42-.08.29-.54.51-1.08.47l-2.9-9.92c-.74-2.53-4.85-4.59-7.15-4.29-.07-1.44.13-3.04,2.62-4.05-.46-.77-1.5-.85-2.19-.88l-5.38-6.09-.5-.59c-2-2.37-4.71-4.25-5.49-8.18,2.91,2.29,4.59,4.91,6.3,7.55.1.15.24.3.39.41l7.68,6.05c-.72-3.38-.93-5.61-1.68-7.58h0Z"></path>
  <path class="cls-3" d="M517.26,586.32l-1.25.51-47.32-67.37c-1.66-2.36-3.61-4.01-3.58-6.51v-.77l52.15,74.13h0Z"></path>
  <path class="cls-3" d="M561.16,548.81c-.18.53-2.4,1.85-3.16,1.35l-73-46.88,1.03-1.16,71.23,45.81c1.38.89,2.95.73,3.91.88h-.01Z"></path>
  <polygon class="cls-3" points="464.1 601.77 462.57 601.92 446.22 521.48 447.61 521.02 464.1 601.77"></polygon>
  <path class="cls-6" d="M463.9,314.79l1.31.54c-1.35,1.09-1.75,2.72-5.14,3.86.95,1.61,2.44,1.57,3.81,1-.05.63,0,1.21.12,1.75l-7.03,1.56c-4.68,1.04-4.64,4.91-4.98,8.48h-1.28c.3-2.85-.27-6.36-1.86-8.61-.24-.34-.15-1.4-.93-1.34-1.36.1-2.45-.67-3.63-1.03.25-.64.87-1.52.65-2l-.91-2.01c.56-.23,1.71-.35,2.04.19l.75,1.21c.44.71,2.6.63,3.32-.18,2.02-2.27,1.85-6.43,2.07-9.58l1.58.62c-.15,2.35-1.5,4.98.47,8.22,4.14-5.02,6.52-10.74,8.91-16.41l1.26.18c-1.82,5.28-4.05,10.33-7.1,15.55,3.23,1.41,4.93-.85,6.56-1.99h.01ZM459.5,320l-.5.5.5.5.5-.5-.5-.5Z"></path>
  <path class="cls-6" d="M444.03,316.99c-.3.1-.75.04-1.03.01s-.72-.07-.99.02v-1.51l-.96-.91c.54.81,1.34,0,.54-.54l.91.95c1.69.28,1.29,1.45,1.53,1.99h0Z"></path>
  <path class="cls-3" d="M390.74,502.81l.28,1.21-22.31,17.66-42.35,33.69c-.58.1-1.38.51-2,.46-.54-.05-1.13-.55-1.4-1.08.72.09,1.78.13,2.82-.69l64.96-51.24h0Z"></path>
  <path class="cls-6" d="M525.04,993.82l-61.14-.22c-.25-2.05.85-2.35,2.12-2.35l58.96.07c.89,0,.86,2.5.06,2.5h0Z"></path>
  <polygon class="cls-3" points="369.75 462.29 369.83 464.03 294.12 456.69 294.08 455.07 369.75 462.29"></polygon>
  <path class="cls-5" d="M390.67,491.1l.39,1.73-42.43,21c.13,6.1-.2,12.19-4.37,16.15.69-3.47,4.36-6.18.81-9.16-2.38,3.09-4.17,6.47-7.33,6.62,2.69-3.74,5.94-5.89,6.15-9.48.31-.08.86-.65.92-1.1.53.28,1.54.12,1.65-.35.28-1.22-2.16-2.85-1.68-4.12.22-.59,2.5.14,3.22-.22l42.67-21.08h0ZM346.5,519l-.5.5.5.5.5-.5-.5-.5Z"></path>
  <path class="cls-5" d="M344.81,516.86c-.08.15-.88.74-.92,1.1-3.94.19-6.58,3.4-10.03,4.58-.65.15-1-.23-1.08-.43l10.73-7.12c1.33-1.49,2.7.53,1.28,1.87h.02Z"></path>
  <path class="cls-5" d="M709.91,357.48c-1.06,1.67-1.44,3.67-2.62,5.07.07-2.32-2.23-3.41-3.43-5.38-5.39-8.84-10.75-18.97-7.37-29.6,1.22,11.39,2,22.32,10.71,30.08-1.28-11.45-4.03-21.87,1.09-31.96-.76,11.5-2.44,21.81,1.62,31.79h0Z"></path>
  <path class="cls-3" d="M579.77,424.12l.17,1.26c-23.74,5.65-47.93,8.52-71.88,12.64l-.27-1.72,71.98-12.17h0Z"></path>
  <path class="cls-6" d="M290.82,394.11c3.86,1.72,3.51-.5,7.87-.52-.4,1.72,2.53,4.2,2.29,6.26l-.1.86-5.76,1.2c-5.69,5.95-12.71,9.52-20.02,12.38l-.28-1.13c5.11-1.84,11.15-3.64,14.13-9.03-5.37.76-8.98,1.47-12.81,2.22l-.04-1.42c5.38-.19,10.32-2.38,15.25-4.51-3.35-1.78-6.06-1.13-8.67-1.69l.29-1.36c2.79.57,6.13-.46,9.28.49,1.29.13,1.22-2.06-.16-1.72-6.24-2.9-12.47-5.92-18.31-10.12,6.75,1.45,11.45,5.59,17.05,8.08h0ZM289.66,403.48l-.65.02.65.02h.68l.65-.02-.65-.02h-.68Z"></path>
  <path class="cls-5" d="M298.69,393.58c-4.36.03-4.01,2.24-7.87.52.75-.12,4.54-1.62,4.41-3.08-1.02-11.9-9.14-20.14-14.4-29.91,8.86,8.29,13.52,18.76,16.73,29.26,2.59-9.02-.37-16.8-2.08-25.56,5.37,8.47,6.26,19.38,3.19,28.76h.02Z"></path>
  <path class="cls-6" d="M507.79,436.29l.27,1.72c-5.98,5.61-15.25,7.46-23.75,4.18,5.78-7.82,15.67-8.63,23.48-5.9Z"></path>
  <polygon class="cls-3" points="427.73 524.5 412.4 595 411.07 594.44 426.42 524.08 427.73 524.5"></polygon>
  <path class="cls-5" d="M325.27,562.72c5.74,8.4,6.38,19.71,3.3,29.37-.12-8.96,1.29-17.92-3.78-25.74-1.24,10.85-1.87,21.06-9.37,28.78,3.74-9.88,9.62-20.91,5.73-30.31.72-1.58,2.11-2.21,4.12-2.09h0Z"></path>
  <path class="cls-3" d="M590.92,421.44c-1.59-.08-1.68-1.51-2.37-1.85-.8-.4-3.06.15-3.49.81,1.45-8,1.22-18.55,8.11-24.5-2.54,6.32-6.47,12.49-5.02,20.64,3.87-7.11,7.66-14.23,14.95-18.47-5.37,6.23-10.95,11.73-13.4,20.3l14.35-8.35-10.34,7.67c-1.4,1.04-2.39,2.16-2.8,3.75h.01Z"></path>
  <path class="cls-3" d="M335.41,439.42l4.33-.31c.49,1.02,1.47,1.95,2.95,2.4l45.36,13.5v1.73l-44.49-13.47c-2.49-.94-4.83-.54-6.66.63l-4.14-1.77c1.02.08,1.99.11,2.85-.74l-5.65-1.75.53-1.23,4.92,1.02h0Z"></path>
  <path class="cls-3" d="M402.97,356.8c.54.04,1-.18,1.08-.47.1-.37,0-1.14.19-1.42l16.43,62.45-17.71-60.56h.01Z"></path>
  <polygon class="cls-3" points="385.89 409.8 384.56 410.42 342.69 361.28 343.3 360.3 385.89 409.8"></polygon>
  <path class="cls-5" d="M523.65,337.91l-2.29.54c-.61-.16-1.06-1.05-1.63-2.68-.99,1.03-1.02,2.11-1.48,3.15-6.8-3.35-12.99-19.4-11.15-28.53,2.7,9.44,2.35,18.91,10.33,25.38-1.33-10.78-2.53-20.11.77-30.01,1.65,3.58.05,7.03-.22,10.48-.57,7.03-.4,14.02,3.02,20.49,3.52-9.7,4.03-19.29,10.57-27.32-2.87,9.88-7.64,18.51-7.91,28.5h-.01Z"></path>
  <path class="cls-5" d="M507.17,542.1c.84.93,2.96,1.85,4.04.89s1.4-2.9,1.58-4.34c4.27-.59,8.91-1.72,13.66.47l-12.62,1.38c3.39,1.83,7.18,2.03,9.52,5.4-3.89-1.3-6.37-3.25-10.64-3.1l4.89,5.77c.04.08.04.2,0,.31,1.66.73,3.9,1.5,4.01,3.87-2.33-.25-3.29-1.95-4.57-3.27l-.72-.67c-1.3-.91-2.11-2.34-4.82-2.54l3.49,10.96c-3.68-3.39-4.36-7.82-6.45-11.73-1.93,4.69-.1,8.31.16,13.26-3.59-4.74-1.53-11.15-1.52-16.67h-.01Z"></path>
  <polygon class="cls-3" points="452 331.97 446.87 386.85 444.95 386.92 450.72 331.97 452 331.97"></polygon>
  <path class="cls-3" d="M951.82,354.16l.19,1.71c-16.78,6.11-34,11.33-52.05,13.09l-.11-1.74c17.99-1.93,35.2-6.81,51.98-13.06h-.01Z"></path>
  <path class="cls-3" d="M351.08,400.63c1.18.53,1.46-.89,2.07-1.33,1.08-.77.81-2.09.93-2.9,1.36,1.42.69,2.38,1.26,2.95-1.03,3.33,2.52,7.51,5.63,8.95.1.31.34.7.64.87,1.07.63,2.06,1.21,2.65,2.66-2.24-.22-2.77-1.45-3.6-2.34-.08-.09-.17-.19-.28-.27l-6.45-4.32c-5.86,3.3-11.9,5.08-18.02,3.58l10.37-1.87c-2.91-3.2-9.43-.58-11.44-4.75,5.46,1.06,9.59,2.68,15.05,1.42l-9.06-5.71-.4-.36c-.51.36-1.13.18-1.32-.65-.09-.37-.53-1,.58-1.12.65-.07,1.48.02,1.87.79.05.09.13.16.25.3,3.2,1.16,7.23.91,9.29,4.09h-.02Z"></path>
  <path class="cls-5" d="M956.02,358.01c1.22.28,1.99-.36,2.2-1.3l.58-2.62c9.03,1.43,17.2-1.05,26.93-1.68-8.77,4.61-17.62,3.11-26.97,3.74,7.89,5.96,17.13,5.87,26.95,7.36-8.27,2.32-15.88-.96-22.98-2.89l-1.42,1.21c4.95,5.78,12.18,7.53,19.69,10.53-10.1-.6-19.6-6.11-24.98-14.35h0ZM962.27,360.33c-1.28-1.76-3.35.03-1.17,1.32l1.17-1.32Z"></path>
  <path class="cls-5" d="M287.04,508.9l-2.36,1.66c-9.07-6.46-19.35-8.38-31.13-11.17,10.64-1.76,19.99,3.88,28.84,7.74l1.24-.9c-3.4-5.82-9.34-8.59-14.88-13.23,8.1,2.37,14.54,8.94,18.29,15.91h0ZM283.87,506.36l-1.02,1.26c1,1.23,2.67-.37,1.02-1.26Z"></path>
  <path class="cls-6" d="M493.17,382.09c-3.34,3.15-2.69,14.35-16.7,16.48.94-10.85,8.75-12.15,15.55-16.66l1.15.18h0Z"></path>
  <path class="cls-6" d="M597.24,1070.73c-.01,1.95-4.41,1.68-4.42.52l-.21-25.59,4.82-.04-.18,25.11h-.01Z"></path>
  <path class="cls-6" d="M293.04,511.05l.03,1.82-2.53,4.94c-.08,3.97.26,7.01-.58,10.23l-1.96-.04c.13-1.4,1.51-3.04-.4-5.59-.83,2.69-2.24,4.36-3.56,6.4l-1.61-.13,4.98-10.9c-2.68,1.62-3.7,3.23-5.57,4.59l-1.04-.65,2.37-2.7c1.27-.55,1.3-1.83.73-2.59.22-.06.42-.25.6-.43l.48-.51c.35-1.04,0-2.24-1.05-2.56-.32.02-.63.07-.94.29l1.13-2.07.55-.59,2.36-1.66c.8,1.49,3.85,2.8,6,2.15h0ZM285.43,517.33l.82-.9c-.84-.87-1.74.02-.82.9Z"></path>
  <path class="cls-6" d="M322.97,554.75c.27.53.86,1.03,1.4,1.08.63.06,1.42-.36,2-.46-.76,2.08-2.49,5.31-1.1,7.35-2.02-.11-3.4.51-4.12,2.09l-3.31,7.25-1.08-1.01c1.2-2.33,2.21-4.85,2.55-8.31l-8.73,6.39c-.12.05-.4-.03-.82-.47l7.58-7.02c.57-.53,1.01-1.31.14-1.99-.4-.32-1.16.1-2.21-.27.94-1.11.36-2-.31-2.22-.81-.27-3.17.11-3.63-.35-.76-1.04,1.06-2.19,1.99-1.32.32.3,1.28.57,1.74.42.71-.23,1.45-1.16,2.01-1.68,1.87.94,3.92,1.15,5.9.52h0Z"></path>
  <path class="cls-5" d="M385.91,473.82l1.24,2.18c-3.65-.13-7.26-.18-11.29.21l-37.76,3.67c.27-.38.02-1.28-.28-1.65l48.09-4.4h0Z"></path>
  <path class="cls-5" d="M525.91,504.68c-.06.53-.08,1.04.05,1.32l-46.77-16.95.69-1.92,46.03,17.55h0Z"></path>
  <path class="cls-6" d="M758.79,418.35l.42,1.18c-3.72,5.66-11.72,7.24-18.84,4.47,4.08-6.53,12.04-8.05,18.42-5.65h0Z"></path>
  <path class="cls-6" d="M277.05,449.04c2.4-.25,3.55,1.67,4.92,2.78,3.69,2.98,7.71,2.83,12.11,3.25l.03,1.61c-4.56-.44-9.01-1.38-13.17,1.65-.42.31-1.21.56-1.69.69-1.67.44-.99-3.86-3.51-3.88l-5.54-.04-.08-1.93,4.85.26c.06.56.52.61.73.42.25-.23.5-1.05.29-1.36-.26-.38-.57-.48-.91-.65l-9.74-4.93.53-1.06c3.55,1.28,7.19,2.66,10.34,4.65l.91-1c-.05-.16-.04-.34-.08-.46h0ZM277.6,449.95l-1.24.96c.85,2.05,3.22.38,1.24-.96Z"></path>
  <path class="cls-5" d="M367.98,539.65l-.33-.87,17.98-20.14,14.48-15.66c-.58-1.84.64-1.76,1.44-1.56.51.13,1.34-.41.94.76-.12.34-.11,1.09-.66,1.68l-31.24,33.73c-.92,1-1.63,1.75-2.6,2.06h-.01Z"></path>
  <path class="cls-3" d="M520.36,346.5c-7.83,12.61-16.36,25.38-27.19,35.59l-1.15-.18c9.04-9.95,17.01-20.75,24.59-32.31,1.35-2.06,1.91-3.39,1.87-5.55.56-.29,2.33,1.73,1.88,2.45h0Z"></path>
  <path class="cls-6" d="M899.84,367.22l.11,1.74c-5.29,3.82-12.34,5.26-18.76,1,5.14-5.58,12.75-5.3,18.65-2.75h0Z"></path>
  <path class="cls-5" d="M564.61,557.85c-.63-.08-1.38.38-1.44,1.13-.65,7.67,3.55,13.41,5.49,20.25-5.68-5.73-6.25-13.12-8.05-19.78-3.46,7.07-1.01,13.6-2,20.83-2.94-7.6-2.28-16.23.8-23.14,2.04.49,2.13-.82,2.83-1.14,1-.46,2.15.95,2.37,1.85h0Z"></path>
  <path class="cls-6" d="M412.63,610.65c-1.91-2.21-4.9-2.33-7.84-2.78-.18-.03-.52-.1-.74-.02l.02-3.22c3.2.28,5.21-4.17,6.54-6.68-.36,10.9,6.53,8.76,10.33,13.6.21.27.42.48.68.64.94.59,1.75,1.34,2.38,2.24.13.19.37.39.72.56.11.69-.79.58-.46,1.08l-.83-.99-2.89-2.63c-.08-.07-.11-.18-.13-.29l-3.72-1.53-.87,1.03c1.42,3.72,5.44,6.55,4.84,11.67-2.43-4.8-4.74-8.87-8.02-12.69h-.01ZM416.57,610.16c-1.06-1.51-2.84.29-1.37,1.35l1.37-1.35Z"></path>
  <path class="cls-5" d="M473.82,564.06c.95.7,2.59.97,3.53.57,1.35-.57,1.66-2.54,1.92-3.88,2.11-.11,4.41.03,6.08,1.9l-4.93.64c1.37.92,2.99,1.2,3.23,4.28-1.27-1.23-2.32-2.52-4.64-2.73l3.98,10.91c-.36.16-.84.19-1.29-.14l-4.29-9.18c-2.25,3.58-1.18,7.33-.79,12.11-3.16-3.55-1.4-7.51-2.57-12.19l-4.35,7.71c.13-3.95,1.48-7.47,4.12-10h0Z"></path>
  <path class="cls-6" d="M535.85,584.3l-.11,1.72c-2.71.32-5.56.21-8.28,1.64,2.17,1.17,3.57,1.42,4.7,1.58l-.14,1.92-6.89-.93c-.41-.06-.93-.2-1.5-.03-.6.18-.99.98-1,1.63-.13.17-.46.41-.51.76-.08.6.53.77.71,1.07l1.42,2.45-.64,1.42-2.53-2.64c.85-1.51-.4-2.23-1.49-2-1.27.26-2.36.61-3.43,1.24-.33-.19-1-.41-.93-1l.79-6.29,1.25-.51,5.66,1.07c4.2-2.36,8.56-3.03,12.92-3.08v-.02Z"></path>
  <path class="cls-3" d="M393.36,337.66c.69.02,1.72.11,2.19.88-2.49,1.01-2.69,2.61-2.62,4.05-7.92,1.04-15.59-.68-22.9-3.67l.16-1.37c6.51,2.37,13.34,3.9,21.32,3.4-5.3-3.15-10.01-4.86-14.43-7.94l.26-1.54,12.18,6.26c1.33.68,2.85.33,3.85-.07h-.01Z"></path>
  <path class="cls-3" d="M809.79,393.86c-2.13,2.29-3.41-.44-4.77,2.34-1.15-6.36-2.1-12.56-.87-19l1.33.17c-1.53,4.41-.72,9.54,1.15,15.02,2.84-9.98,6.73-20.06,15.26-27.23-5.78,8.99-13.93,18.92-12.1,28.71h0Z"></path>
  <path class="cls-3" d="M602.89,488.45l-.14,1.62-10.27,3.22c-.13.46.32,1.29.64,1.67l-1.7.12c-1.6.11-1.1-3.06-2.05-4.22-.58-.71-1.74-.39-2.35.38,1.04-4.66,2.83-9.18,6.93-12.64l-2.75,8.1,9.15-4.76c-2.7,3.57-6.35,3.8-7.21,8.65l9.75-2.14h0ZM591.5,490.01l-.02.65v.68l.02.65.02-.65v-.68l-.02-.65Z"></path>
  <path class="cls-3" d="M280.94,458.34c-.63,4.22-2.29,8.55-5.4,12.29l-7,8.41-.95-.49,8.87-12.78c-1.34-.66-3.25-.51-3.67-2.48,2.25-.77,3.97-1.89,3.25-4.86-5,2.24-9.49,3.33-14.13,4.2l-.27-1.36,12.68-4c.64-.2,1.28-.57,1.49-.89.19-.28.15-.9-.08-1.23,2.53.02,1.85,4.32,3.51,3.88.48-.13,1.27-.38,1.69-.69h.01ZM277.5,461.01l-.02.65v.68l.02.65.02-.65v-.68l-.02-.65Z"></path>
  <path class="cls-3" d="M441.61,568.99l-4.26,3.06-4.03-2.15c4.14-2.26,4.08-5.2,4.03-8.91l-.36-28.99h1.37c1.2,9,.76,18.31.3,28.01-.18,3.68-.75,7.6,2.95,8.99h0Z"></path>
  <path class="cls-3" d="M477.44,624.69l-1.2.3-8.42-12.84c1.38-1.05,1.97-2.63,2.06-4.29,5.92.36,12.16,1.21,17.43,4.87l-12.11-2.5c.33,3.62,3.23,3.54,4.13,5.48-3.34-.5-4.19-3.32-8.54-2.84l6.64,11.82h.01ZM473.66,610.48l-.65.02.65.02h.68l.65-.02-.65-.02h-.68ZM470.5,612l-.5.5.5.5.5-.5-.5-.5Z"></path>
  <path class="cls-6" d="M958.31,341.89l-1.58,5.83c-.24.33-1.37.47-.78,1.75.35.75,1.22.2,1.49-.37.12-.26.85-.35.81-1.04-.13-2.72,3.39-2.73,4.36-4.05l.55.82-5.52,6.4,8.91-2.64.13,1.4c-2.67,1.12-5.96,1.88-7.89,4.09l-.58,2.62c-.21.94-.98,1.58-2.2,1.3-.85-1.3-2.64-1.34-4.01-2.13l-.19-1.71c-.22-1.36.28-2.38,1.35-3.13,1.24-.88,1.5-2.44,1.93-3.79l1.9-5.96c.39-.03,1.02.07,1.31.61h.01Z"></path>
  <polygon class="cls-5" points="420.89 516.72 405.65 558.24 404.1 558.19 413.84 531.74 419.7 516 420.89 516.72"></polygon>
  <path class="cls-5" d="M664.5,268.34l-3.59-1.39,3.31-1.9c11.13,1.81,21.59-1.83,31.89-6.11-8.4,7.97-22.05,7.44-31.61,9.41h0Z"></path>
  <path class="cls-6" d="M563.44,548.73c.16.6.77,1.22,1.22,1.1l2.36-.65c-.95,1.55-1.39,3.97-.07,4.85l5.81,3.88-.06,1.55-7.93-4.1,5.37,9.95c-3.14-1.83-4.83-4.64-5.52-7.47-.22-.9-1.37-2.31-2.37-1.85-.7.32-.79,1.63-2.83,1.14l-1.42-6.98c.77.49,2.98-.83,3.16-1.35l2.28-.08h0Z"></path>
  <polygon class="cls-3" points="454.29 515.33 456.2 515.11 471.17 550.18 454.29 515.33"></polygon>
  <path class="cls-5" d="M337.01,349.19l-1.57,1.67c-.31.34-.74-1.39-1.06-1.73,1.22-9.37-7.08-20.25-10.95-30.97,7.31,8.6,11.28,20.06,13.58,31.03h0Z"></path>
  <path class="cls-5" d="M527.82,509.79c1.22.08,2.72-.92,3.31-2.03.5-.95-.51-2.74-1.07-4.17,2.95-3.82,8.64-6.64,14.32-6.06-4.79,2.95-9.35,2.53-12.93,6.76l13.56-.73.14,1.52-13.22,1.49,11.95,4.97c.15.61.04,1.13-.04,1.35l-11.57-3.65c.09,4.23,3.56,4.79,5.01,7.57l-6.73-3.76c.03,3.99,2.2,5.25,3.35,7.34.16.29.57.52.7.52,1.68,1.64-.62,1.22-.43,1.63l-.72-1.27c-3.37-2.71-5.8-7.09-5.62-11.47h-.01ZM531.5,509l-.5.5.5.5.5-.5-.5-.5ZM530.5,512l-.5.5.5.5.5-.5-.5-.5Z"></path>
  <polygon class="cls-5" points="429.01 377.03 431.99 416.98 430.59 416.93 428.19 389.1 427.38 376.84 429.01 377.03"></polygon>
  <path class="cls-5" d="M507.91,539.32c-.2-.04-.56-.12-.92.06l-28.13-26.04c.27-.57.33-1.1.43-1.51l28.63,27.49h0Z"></path>
  <path class="cls-5" d="M920.97,245.15c-.89.21-1.67-.02-2.5-.26-1.27-10.85,4.71-29.32,6.15-29.22l1.03.07c.39.03-7.57,18.6-4.69,29.41h0Z"></path>
  <path class="cls-3" d="M412.63,610.65c-1.59,5.5,2.23,12.69,1.13,19.55-3.14-5.85-1.31-13.38-4.59-19.83-2.54,4.98-3.06,9.24-4.18,13.54-.79-.32-1.07-1.16-1.19-2.04l2.86-12.4c-6.01,3.79-7.38,9.37-11.65,13.66,1.61-6.47,6.7-10.23,9.79-15.26,2.94.45,5.93.56,7.84,2.78h-.01Z"></path>
  <path class="cls-5" d="M713.67,357.83l.29,3.07c-1.3-.31-3.19-.4-3.91-1.76.19-.08.56-.29.74-.63,2.98-9.89,4.94-20.06,11.1-29.04-2.15,10.38-8.13,18.54-8.21,28.36h0Z"></path>
  <path class="cls-5" d="M717.2,365c-1.11.34-2.22-.31-2.43-1.24-.16-.7-.32-2.26-.81-2.86.63-.13,1.28-.31,1.91-.65.53.92,1.54.98,2.76.61,9.48-2.86,16.16-9.19,24.31-14.02-7.06,8.41-16.39,12.55-26.17,16.8-.25-.16.03,1.05.44,1.36h-.01Z"></path>
  <path class="cls-5" d="M567.83,549.94c.25-.44.36-1.12.25-1.57,10.2-3.34,22.24-5.27,33.09-.35-12.08-1.11-22.71-2.54-33.34,1.92Z"></path>
  <path class="cls-5" d="M916.73,244.38c-.37-.11-.76.24-.94.74-5.03-8.45-6.26-18.86-4.61-29.21.07-.44,1.68-.47,1.78-.11-1.75,10.21-.3,19.88,3.78,28.58h-.01Z"></path>
  <path class="cls-5" d="M521.07,594.88c-1.1,9.98,4.59,18.38,6.93,28.46-6.75-8.54-7.12-18.88-10.27-27.98-.8-.03-1.19-1.01-1.58-1.24,1.07-.63,2.17-.98,3.43-1.24,1.09-.23,2.33.49,1.49,2h0Z"></path>
  <path class="cls-5" d="M281.97,451.82c-1.38-1.11-2.52-3.03-4.92-2.78l-8.3-10.74c3.08,1.93,4.65,5.34,7.72,5.64l.96-.71c-.73-3.61-3.19-8.07-5.4-10.51l-1.01-1.11c.82,1.07,2.21-.37.61-1.14l1.12,1.19c4.93,5.55,7.59,12.95,9.23,20.17h0ZM277.53,446.22l.24-2.32c.78.75-1.85-.76-.24,2.32Z"></path>
  <path class="cls-5" d="M332.96,356.91c-7.42,5-16.53,6.34-25.97,6.12-3.43-.08-6.46.44-9.12-1.73l13.21.08c7.16.04,14.35-1.94,19.92-5.39.61,0,1.48.58,1.97.93h-.01Z"></path>
  <path class="cls-5" d="M590.8,496.24c-.4.92-.07,1.67.86,1.84,8.32,5.15,17,8.39,26.11,10.86.67.82.17,1.89-.68,1.67-9.22-2.55-17.94-6.2-26.49-11.03-.35-.12-.97.71-.76,1.23-.36.39-.76,1.34-2.18.86,1-.53,1.13-1.4,1.06-2.25.58-1.06.84-2.52,2.09-3.18h-.01Z"></path>
  <path class="cls-3" d="M283.9,516.43l-27.48,7.87c.13-.54.03-1.08-.18-1.49l25.72-7.76c1.28-.39,1.87-1.15,1.97-2.12,1.05.32,1.4,1.53,1.05,2.56l1.27.94c-.84-.87-1.74.02-.82.9l-.93-1.33c-.18.18-.38.36-.6.43h0Z"></path>
  <path class="cls-5" d="M317.06,554.23c-.55.52-1.3,1.45-2.01,1.68.45-.06.8-1.18.15-1.57-8.1-4.75-16.79-6.4-26.34-5.17,1.09-3.26,3.7-1.88,6.05-1.87,8.39.03,16.39,1.63,22.15,6.93h0Z"></path>
  <path class="cls-5" d="M1031.6,164.09l.39-1.99c10.47,1.69,19.55-2.61,30.4-6.62-8.26,7.11-20.2,8.57-30.79,8.61Z"></path>
  <path class="cls-3" d="M662.67,262.99c0-.49-.07-.89-.22-1.28,9.76-2.73,17.39-9.2,26.51-14.31-7.38,7.9-16.98,12.3-26.29,15.59h0Z"></path>
  <path class="cls-5" d="M284.12,511.15l-1.13,2.07c-9.68-2.1-19.16-.63-29.96-1.29,10.56-3.82,20.87-.86,31.09-.78h0Z"></path>
  <path class="cls-5" d="M315.26,559.38c1.05.37,1.8-.04,2.21.27.86.68.43,1.46-.14,1.99-1.35-1.33-2.92-.53-4.62-.07-8.35,2.26-14.99,6.45-23.12,9.45,7.47-6.91,17.1-8.7,25.68-11.65h0Z"></path>
  <path class="cls-5" d="M1020,153.02c.3-.08.69-.05,1.05-.03l.94,1.82c.42.81-.45,1.72-.82,2.32-7.07-3.71-14.86-20.47-12.41-28.97,2.75,8.12,2.82,15.93,7.5,22.5.67,1.79,2.26,2.77,3.74,2.37h0ZM1020.5,154l-.5.5.5.5.5-.5-.5-.5Z"></path>
  <path class="cls-5" d="M595.73,496.88v-1.89l24.83,2.52c.42.28.47,1.67.06,1.97l-24.89-2.6h0Z"></path>
  <path class="cls-5" d="M465.02,614.23c.73-.65,1.38-1.6,1.96-2.23-.52,3.37.57,6.81,1.26,10.5l3.21,17.07c-.36-.14-.92-.26-1.5.04l-4.94-25.38h.01Z"></path>
  <path class="cls-3" d="M328.36,350.42l-.37,1.47c-8.67-4.33-18.16-8.08-25.19-15.87,9.06,5.08,16.58,10.69,25.56,14.4Z"></path>
  <path class="cls-5" d="M955.1,347.24c-.43,1.35-.69,2.91-1.93,3.79-2.64-8.6-1.91-18.75,4.46-26.11-2.64,7.92-6.14,16.76-2.52,22.33h-.01Z"></path>
  <path class="cls-3" d="M465.21,315.33l-1.31-.54c7.96-5.58,11.74-13.94,17.6-22.05-2.69,9.61-9.36,17.01-16.3,22.6h0Z"></path>
  <path class="cls-5" d="M402.13,332.14l-1.86.28c1.12-6.2,1.18-12.47.47-19.27-.33-3.16-2.42-6.62.74-9.97l1.39,11.83-.74,17.14h0Z"></path>
  <path class="cls-6" d="M469.88,607.86c-.1,1.66-.68,3.24-2.06,4.29l-.83-.15c-.59.63-1.23,1.58-1.96,2.23-.8-4.1-3.46-1.09-5.81-4.25,2.9-1.29,3.96-5.14,3.37-8.06l1.53-.15c.53,2.59,2.68,5.9,5.78,6.09h-.02Z"></path>
  <path class="cls-3" d="M589.26,429.05l2.78-6.33c-1.22,4.56,3.58,7.46,8.89,10.72l1.78,1.1c-2.05-1.63-1.22,1.14-1.68.16-.39-.22-.5-.47-.59-.68-1.97-.2-4.3-1.81-6.54-2.78-2.9,2.82,2.33,3.59,2.88,8.24l.72.51.49.49c.12.12.31.56,1.56.9-1.05-1.02-1.79-.06-1.17.61l-.89-1.01-.49-.5-.56-.94c-2.65-3.17-6.9-6.34-7.18-10.5h0Z"></path>
  <path class="cls-6" d="M590.92,421.44l2.2-.5-.13,1.93c-.19-.08-.6-.17-.94-.16l-2.78,6.33c-2.38-2.87-5.99-4.47-9.33-3.67l-.17-1.26c2.28-.39,4.13-1.78,5.29-3.71.43-.67,2.69-1.21,3.49-.81.69.34.78,1.77,2.37,1.85h0Z"></path>
  <path class="cls-3" d="M1036.94,168.32l.02-1.32c8.79,3.01,17.57,1.8,27.21.2-8.56,3.67-18.85,4.36-27.23,1.12h0Z"></path>
  <path class="cls-3" d="M1021.95,151.82c-.6-.09-1.09.82-.9,1.18-.36-.02-.75-.05-1.05.03-.83-9.21-3.37-18.77,1.06-28.05-.61,9.68-2.02,18.16.88,26.84h.01Z"></path>
  <path class="cls-5" d="M355.34,399.35c-.57-.57.11-1.53-1.26-2.95-.12.81.15,2.13-.93,2.9-.62.44-.89,1.86-2.07,1.33-1.28-6.54-9.77-13.01-5.75-12.18.65.13,4.95,5.87,7.54,10.42,1.75-5.91-1.58-9.18-2.79-14.16,4.08,2.6,4.54,7.44,4.79,12.33,1.65-.27,1.68-1.6,1.36-3.17,2.21,2.12-.42,3.98-.89,5.48h0Z"></path>
  <path class="cls-3" d="M592.98,422.88l.13-1.93c9.17-1.04,17.7-5.61,27.65-5.29l-27.78,7.22Z"></path>
  <path class="cls-5" d="M310.64,556.06c-8.92.46-16.27,1.71-25.24,3.52,7.4-4.04,16.46-6.46,25.24-3.52Z"></path>
  <path class="cls-5" d="M514.97,603.04c-2.51,7.63.16,15.06,1.27,23.56-4.55-7.47-4.04-16-3.2-23.51l1.93-.05Z"></path>
  <path class="cls-6" d="M389.31,381.79c-.57.28-.92.11-1.12.02-1.54-.67-3.21-1.19-4.9-1.03l1.96-6.27c.29.51.68,1.98,2.53,1.64-.13-5.13-1.36-9.2-.53-14.32,2.52,2.99,1.59,6.44,1.72,10.23s1.11,6.75.34,9.73h0Z"></path>
  <path class="cls-3" d="M453.8,309.24l-1.58-.62,1.59-23.3c.86.38,1.15.17,1.47.09l-1.48,23.83Z"></path>
  <path class="cls-5" d="M319.87,353.94l.06,1.92c-7.6-.08-23.53-5.87-23.58-6.46-.26-3.14,10.55,4,23.52,4.54h0Z"></path>
  <path class="cls-5" d="M404.07,604.63l-.02,3.22-8.5,2.98c1.52-1.75,2.4-1.89,2.64-2.5.19-.49-.31-2.04-.75-1.99l-2.52.3c-4.36.52-7.28,4.17-12.71,4.19,6.33-4.39,13.96-6.9,21.86-6.2h0ZM400.97,605.95c-1.87-.84-2.46,1.56-.21,1.2,1.1.27,1.46-1.07.21-1.2Z"></path>
  <path class="cls-5" d="M385.25,374.51l-1.96,6.27c-2.68.26-5.23-.02-7.8-1.46,2.32-1.19,3.64-.55,5.67-.4-.32-2.36-1.78-3.22-3.09-4.4l-.58-.53-.57-.47-.47-.45-.62-.51-.41-.41-.53-.61-.44-.46-.45-.59-.95-.91c.54.8,1.34,0,.54-.54l.91.95.55.47.47.46.54.53.47.46.62.5.43.41.77.5c.15.1.24.28.29.45,1.28.52,2.44,1.48,4.75,1.45l-4.23-11.28c3.36,3.37,4.61,7.19,6.09,10.57h0Z"></path>
  <path class="cls-6" d="M593.13,494.95l2.6.03v1.89l-4.93-.63c-1.25.66-1.51,2.12-2.09,3.18l-2.06.42c-.11-2.14-3.06-2.52-3.84-4.62l.19-1.85,4.04-2.13c.61-.77,1.76-1.09,2.35-.38.95,1.15.45,4.33,2.05,4.22l1.7-.12h0Z"></path>
  <path class="cls-5" d="M622.02,427.82l-19.98.05c-2.62,0-5.12-1.61-7.95-.66-.24-1.58-.16-1.96.09-3.1,2.53.86,5.12,1.72,7.91,1.74l19.44.16c.66.49.65,1.27.49,1.81h0Z"></path>
  <path class="cls-5" d="M341.7,336.08l-1.69-1.08c-.45-6.94-1.34-13.62-4.47-20.49-.3-.71.7-1.65,1.72-1.21,2.36,7.48,4.6,15.14,4.45,22.78h-.01Z"></path>
  <path class="cls-5" d="M464,321.93c-.11-.54-.17-1.12-.12-1.75,8.57-2.19,14.93-7.82,22.12-13.43-5.21,8.1-13.38,13.26-22,15.18Z"></path>
  <path class="cls-5" d="M332.77,442.12l4.14,1.77c-6.2,6.81-15.89,9.3-12.82,5.42,4.36-.5,8.02-1.88,10.7-5.31-5.68-.32-9.64,2.02-14.54-.1,4.77-1.49,8.72.04,12.52-1.79h0Z"></path>
  <path class="cls-5" d="M931.79,252.98l.02-1.85c8.36-.71,15.47-4.6,24.4-7.54-6.79,5.56-15.95,7.45-24.42,9.39h0Z"></path>
  <path class="cls-3" d="M588.71,499.42c.07.85-.06,1.72-1.06,2.25,1.43.49,1.82-.47,2.18-.86l6.68,8.71.17.09c.29.16.52.42.71.69.11.15.17.35.19.54,1.05.38,1.65,1.41,2.41,1.98l-.91.32-2.09-1.62-.54-.43-.56-.54-.59-.66-6.69-6.86,2.48,11.87c-2.8-4.04-5.35-9.54-4.44-15.07l2.06-.42h0Z"></path>
  <path class="cls-5" d="M270.12,453.18l.08,1.93-24.34-1.74c-.07-.47.11-1.05.67-1.42l23.59,1.23Z"></path>
  <path class="cls-5" d="M388.19,381.81c.19.08.54.26,1.12-.02l12.68,25.32-13.8-25.3h0Z"></path>
  <path class="cls-5" d="M1027.03,153.9l-1.88-.03c2.58-8.68,3.25-18.23,9.35-26.59-.28,6.82-4.81,11.8-6.08,18.3-.58,2.99-.98,5.74-1.4,8.32h.01Z"></path>
  <path class="cls-5" d="M348.92,336.04l-1.74.06c2.11-7.36,1.37-15.02,1.26-23.16,2.61,7.41,2.56,15.56.48,23.1h0Z"></path>
  <path class="cls-5" d="M532.02,591.16l.14-1.92c7.82,1.1,14.64,4.64,21.7,9.02l1.73.43c.41.1.1,1.54-.35,1.61-1.94.29-8.36-7.12-23.23-9.14h0Z"></path>
  <path class="cls-3" d="M395.94,329.17l-1.27.06c-2.85-7.45-6.35-14.94-7.32-23.22l8.59,23.16Z"></path>
  <path class="cls-5" d="M336.73,481.84c-1.04,3.27-2.52,6.05-5.97,8.63l.73-5.4c-4.14,1.41-6.01,3.81-10.03,3.09,4.64-2.5,8.19-4.27,11.83-6.73l-2.25-1.26c2.31-.36,3.63,1.49,5.69,1.68h0ZM332.66,484.48l-.65.02.65.02h.68l.65-.02-.65-.02h-.68Z"></path>
  <path class="cls-3" d="M273.47,373.05c-.41-.06-.83-.4-.99-.73-.14-.29-.25-1.2.04-1.35s1.51.56,1.67.97l.77.78c5.29,5.39,13.28,10.76,17.38,18.62-6.7-5.61-11-12.61-18.12-17.53l-.74-.77h-.01Z"></path>
  <path class="cls-5" d="M658.52,253.18l-1.39-.16c3.28-8.22,5.59-17.39,11.83-24.59l-10.44,24.75Z"></path>
  <path class="cls-5" d="M799.34,253.27l-.49,2.04c-.26,1.1-1.05.56-1.38-.02s-.51-.84-.49-1.32c2.3-.83-2.37-16.14,3.26-23.05-.88,8.08-2.5,15.1-.91,22.35h0Z"></path>
  <path class="cls-5" d="M523.6,597.53l.64-1.42c4.24,7.29,10.68,13.27,14.32,21.32-6.57-6.24-9.47-14.14-14.97-19.9h0Z"></path>
  <path class="cls-3" d="M664.5,268.34c6.71,4.13,14.7,5.18,22.58,4.57l-.19,1.52c-8.81,1.56-19.24-2.06-27.5-6.55l1.52-.93,3.59,1.39h0Z"></path>
  <path class="cls-5" d="M280.81,521.72l1.04.65c-6.46,4.68-12.84,10.57-21.22,12.25l20.18-12.9Z"></path>
  <path class="cls-5" d="M284.05,528.82c-4.16,6.44-9.6,13.26-17.02,16.72,5.61-6.17,12.26-9.96,15.4-16.85l1.61.13h.01Z"></path>
  <path class="cls-5" d="M653.04,249.33l-1.82-.13c-1.19-8.11-.92-17.08,3.35-24.96-.15,9.43-2.55,16.91-1.53,25.1h0Z"></path>
  <path class="cls-5" d="M335.9,477.18c-1.65.62-2.99,2.03-4.83,1.98.8-3.53-6.28-2.39-11.25-5.9l12.58,2.1-2.89-4.17c4.12.87,5.61,3.43,6.39,5.98h0Z"></path>
  <path class="cls-3" d="M437.74,309.95c-5.4-6.36-10.89-14.58-11.23-23.67,3.67,8.42,6.53,15.54,11.23,23.67Z"></path>
  <path class="cls-2" d="M521.36,338.45c1.51.41,3,1.16,3.48,2.45.63,1.69.46,3.29-.04,4.85l-4.43.74c.45-.72-1.32-2.75-1.88-2.45-.03-1.61.71-3.47-.23-5.12.46-1.04.49-2.12,1.48-3.15.57,1.63,1.03,2.51,1.63,2.68h-.01Z"></path>
  <path class="cls-5" d="M820.05,406.44l.29-1.24c8.97,3.75,17.53,0,23.54,3.03-8.53,1.93-16.43.56-23.83-1.79h0Z"></path>
  <path class="cls-3" d="M443.87,298.35c1.7,6.78,3.32,13.48,6.28,19.85-.72.81-2.88.89-3.32.18.5.1,1.07-.16,1.28-.77.18-.52-.49-1.19-.65-1.73l-5.21-17.93,1.61.4h.01Z"></path>
  <path class="cls-3" d="M733.57,336.89c-3.57,7.24-8.17,12.51-13.8,17.42l13.8-17.42Z"></path>
  <path class="cls-6" d="M428.06,367.24c-.47,2.92.45,4.01,1.05,2.32l.75-2.1c1.11-.97,2.12.47,1.12,1.47-.73-.1-1.42.66-.99,1.54.18.36.5.56,1.03.59l1.12-.03-.12,1.11c-1.2,1.21-3.16,2.94-3.01,4.89l-1.63-.19c-1.31-2.67-4.05-4.03-7.45-4.99.06-1.58,1.28-1.48,2.02-.91.15,1.25,1.37,1.46,2.4.97.69-.33,1.5-.99,1.76-1.92.24-.87.05-1.86.04-2.75h1.91Z"></path>
  <path class="cls-5" d="M339.74,439.1l-4.33.31c.41-.03,1.38-.51,1.91-1.03.36-.36-.19-1.75-.74-1.96-.48-.18-1.5.2-2.17.31-2.14-1.36-3.62-2.39-4.69-5.01l6.67,4.2c.48-4.07-1.55-5.93-2.59-8.28-.09-.2-.25-.37-.39-.4-.48-.09-1.42-1-1.36-1.68.03-.34,1.04-.35,1.3-.14.33.27.62.63.61,1.02l.57.58c3.12,3.18,4.82,7.66,5.2,12.1v-.02Z"></path>
  <path class="cls-3" d="M665.25,254.67l-.56-.9,14.73-16.49c.3.32.49.84.39,1.46l-14.56,15.93h0Z"></path>
  <path class="cls-5" d="M437.35,572.05l4.26-3.06c2.05.77,4.45,2.09,5.32,5.41-1.95-.95-2.92-2.12-5.1-3.99-1.09,1.72-.12,2.69.01,4.65l-2.61-3.76c-1.94,6.05,1.88,11.1-2.12,12.74l.25-11.99h-.01Z"></path>
  <path class="cls-5" d="M282.96,397.38l-.29,1.36c-7.27-1.55-15.01-1.81-22.35-6l22.64,4.65h0Z"></path>
  <path class="cls-3" d="M572.69,559.47l.06-1.55,18.24,11.21c-.23.37-.39.85-.4,1.41l-17.9-11.06h0Z"></path>
  <path class="cls-5" d="M939.7,259.78l-.03-1.68c7,.54,13.22-.56,20.99-1.4-6.67,4.21-14.21,2.88-20.96,3.07h0Z"></path>
  <path class="cls-3" d="M584,537.22l-.02,1.68c-7.02,2.01-16.67,6.26-15.9,9.48.11.45,0,1.13-.25,1.57-.29.51.18,1.44,1,1.57l9.99,1.57-.96,1.23-9.03-1.31c-1.04-.15-1.86.45-1.89,1.02-1.32-.88-.88-3.3.07-4.85l-2.36.65c-.45.12-1.06-.5-1.22-1.1,1.74-.3,2.68-1.9,4.1-3.23,4.73-4.41,10.53-6.99,16.46-8.29h.01Z"></path>
  <path class="cls-5" d="M958.31,341.89c-.29-.54-.92-.65-1.31-.61,2.98-6.32,6.88-13.25,12.97-16.98-4.35,6.56-9.85,10.91-11.66,17.59Z"></path>
  <path class="cls-5" d="M577.86,554.32l.96-1.23,16.46,4.81c.82.24,1.7.59,1.29,2.51-5.9-2.94-12.24-5.15-18.71-6.09Z"></path>
  <path class="cls-5" d="M583.98,538.89l.02-1.68c5.35-1.17,11.13-2.96,17.1-.43-6.6,1.32-11.73.57-17.12,2.11Z"></path>
  <path class="cls-5" d="M619.32,473.9c-6.89,3.49-12.71,5.69-19.62,8.23,5.67-4.62,12.3-7.72,19.62-8.23Z"></path>
  <path class="cls-3" d="M719.23,366.1l-.84,1.3c4.36,3.16,9.48,3.53,14.88,5.11-7.01,1.86-13.04-2.09-18.17-5.59,1.23-.23,2.58-1.4,4.13-.82h0Z"></path>
  <path class="cls-5" d="M602.75,490.07l.14-1.62,15.6-2.84c.56-.1,1.28-.43,1.84-.3.67.17.54.57.43,1.02-.33,1.24-.89.9-1.96,1.07l-16.05,2.66h0Z"></path>
  <path class="cls-3" d="M525.31,592.05c5.53,2.45,10.29,6.63,15.06,10.35l.3.24,1.35.86.62.77c1.31,1.63,3.69,2.18,4.6,4.9-3.01-1.05-4.17-3.13-5.82-4.79-.04,0-.08.01-.11,0l-1.36-.85c-.23-.15-.42-.38-.58-.61l-14.69-9.71c-.62-.41-1.68.1-1.87.45-.17-.3-.79-.47-.71-1.07.05-.35.38-.59.51-.76l2.69.22h.01Z"></path>
  <path class="cls-5" d="M645.2,249.13c-2.92-6.71-5.94-14.82-3.11-23.02,1.66,8.2,1.12,15.46,3.98,22.37.1.23.3.46.47.62l4.98,9.27c-3.51-1.88-4.48-5.08-5.54-8.36-.17-.52-.32-.75-.78-.88h0Z"></path>
  <path class="cls-3" d="M442.01,317.02c.27-.09.7-.05.99-.02-.18.65.02,1.52.59,1.84.41.23,1.02.23,1.35.16.22.48-.4,1.37-.65,2-5.35-1.63-10.61-4.06-14.68-8.88,4.76.86,7.96,6.35,12.4,4.89h0Z"></path>
  <path class="cls-3" d="M412.99,425.98c-.37.06-.72-.1-1.22.1l-9.98-18.44.82-.68,10.37,19.02h.01Z"></path>
  <path class="cls-5" d="M752.36,369.97c-5.96,3.81-12.85,4.91-19.22,2.96l19.22-2.96Z"></path>
  <path class="cls-3" d="M414.03,331.82c4.19-6.15,8.13-11.93,10.74-18.52-1.64,7.51-4.4,14.24-10.74,18.52Z"></path>
  <path class="cls-5" d="M289.96,528.04c-1.49,5.75-2.91,12.02-7.68,16.3,2.14-6.19,5.19-10.68,5.72-16.34l1.96.04h0Z"></path>
  <path class="cls-2" d="M779.15,1015.02l-.31-40.16c.47-.07,1.16.34,1.16,1.19l-.85,38.97Z"></path>
  <path class="cls-3" d="M516.15,594.12c.39.23.79,1.22,1.58,1.24l-2.76,7.67-1.93.05c.21-1.89,1.46-3.6.78-6.35l-5.89,6.71c.63-5.06,3.88-7.85,7.29-10.32-.07.59.6.81.93,1Z"></path>
  <path class="cls-5" d="M535.74,586.02l.11-1.72c6.54-.08,13.8.17,19.43,4.65-7.11-1.95-12.92-3.7-19.54-2.93h0Z"></path>
  <path class="cls-5" d="M267.36,468.92c-5.3,4.48-11.32,7.42-18.47,8.25,6.27-3.74,11.95-5.35,18.47-8.25Z"></path>
  <path class="cls-5" d="M325.97,887.02c-1.5,2.43-.81,6.96-4.41,8.08-1.37-2.48-1.19-5.68-.3-9.63.33-1.46,3.88.01,4.72,1.55h-.01Z"></path>
  <path class="cls-3" d="M1046.05,136.58l-11.42,14.63-.94-.89,10.95-14.09c.56-.72,1.32-.48,1.41.35h0Z"></path>
  <path class="cls-5" d="M377.32,331.47l-.26,1.54c-5.49-3.82-13.76-10.89-13.48-11.87.96-3.36,6.02,6.36,13.74,10.33h0Z"></path>
  <path class="cls-5" d="M966.69,350l-.13-1.4,15.03-6.25c0,.2-.11.83.12,1.35l-15.03,6.3h.01Z"></path>
  <path class="cls-5" d="M276.09,404.93l.04,1.42c-5.87,1.15-12.33.85-18.45-.94,2.1-1.58,4.39.02,6.15-.04l12.26-.44Z"></path>
  <path class="cls-5" d="M265.88,445.85l-.53,1.06-18.19-6.23c7.12-1.03,12.83,3.04,18.72,5.17Z"></path>
  <path class="cls-3" d="M309.74,568.66c.42.44.7.53.82.47l-12.85,11.08-.68-.85,12.71-10.7Z"></path>
  <path class="cls-5" d="M963.17,344.83l-.55-.82c3.43-4.65,8.3-7.35,13.52-11.34,2.02,2.53-7.22,5.48-12.97,12.15h0Z"></path>
  <path class="cls-5" d="M274.81,413.16l.28,1.13-4.15,1.62c-4.2.07-8.25,2.26-12.84.55,5.96-1.24,11.35-1.38,16.71-3.31h0Z"></path>
  <path class="cls-3" d="M323.41,337.65l-.64,1.19-10.45-12.18c.19-.06.85-.06,1.21-.33l9.88,11.32h0Z"></path>
  <polygon class="cls-5" points="406.08 561.69 404.51 573.1 403.95 563.45 399.24 571.17 402.13 562.09 406.08 561.69"></polygon>
  <path class="cls-5" d="M261.65,461.26l.27,1.36-14.64,2.76c.1-.43.09-.89-.06-1.35l14.43-2.76h0Z"></path>
  <path class="cls-5" d="M616.97,449.36c-6.38-.14-11.98-3.08-16.54-7.35l16.54,7.35Z"></path>
  <path class="cls-5" d="M602.72,436.06c1.99-2.4,10.3,1.7,19.14,3.1-6.81,2.1-12.62-1.45-19.14-3.1Z"></path>
  <path class="cls-5" d="M792.26,235.23c-1.5,6.14.66,9.77,1.7,15.41-3.83-4.28-3.79-10.03-3.99-15.89-.04-1.32,2.62-1.05,2.29.48Z"></path>
  <path class="cls-5" d="M464.44,301.23l-1.26-.18c1.9-4.5,2.24-9.44,5.05-14.16.58,5.56-2.3,10.02-3.79,14.34h0Z"></path>
  <path class="cls-5" d="M599.08,513.15l.91-.32c4.2,3.2,9.37,4.8,13.46,9.02-6.06-1.39-10.27-5.52-14.37-8.7Z"></path>
  <path class="cls-5" d="M817,263.04l-.03-1.34c4.27-.95,8.82-2.34,13.21-4.69,2.58,2.01-8.81,5.95-13.18,6.03Z"></path>
  <path class="cls-5" d="M492.74,631.27c-4.07-4.38-6.68-7.97-9.99-12.46,4.91,2.93,8.35,7.04,9.99,12.46Z"></path>
  <path class="cls-5" d="M508.16,605.21l-3.71,15.87c-.53-5.86.01-11.38,2.35-16.53l1.36.66h0Z"></path>
  <path class="cls-5" d="M317.83,572.06c-2.79,6.1-6.39,12.53-12.79,16.23,4.45-6.04,8.57-11.18,11.71-17.24l1.08,1.01h0Z"></path>
  <path class="cls-5" d="M820.87,252.08c-4.07,4.35-8.86,6.24-13.95,7.64,4.04-3.77,9.02-5.41,13.95-7.64Z"></path>
  <path class="cls-5" d="M732.01,365.94l-.13-1.39,15.21-3.94c-4.76,3.31-10.06,4.5-15.08,5.33h0Z"></path>
  <path class="cls-5" d="M930.29,234.89c-.01-.65-.73-.81-1.22-.69,2.28-4.22,4.8-8.81,9.61-12.34l-8.39,13.04h0Z"></path>
  <path class="cls-5" d="M547.9,350.76l.15-1.7,13.27-2.45c-4.11,3.3-9.06,3.66-13.42,4.15h0Z"></path>
  <path class="cls-5" d="M452.97,623.75c-2.4,4.87-4.18,9.6-4.37,16.05-3.27-2.75-1.04-5.89-.1-8.32l2.99-7.71,1.48-.02h0Z"></path>
  <path class="cls-5" d="M825.98,399.79l-.1-1.26c5.22-.69,9.83-2.99,15.82-2.97-5.21,3.27-10.67,3.79-15.72,4.23h0Z"></path>
  <path class="cls-5" d="M476.24,624.99l1.2-.3c2.02,3.59,4.88,7.49,4.78,12.62-3.27-4.11-3.61-8.7-5.98-12.31h0Z"></path>
  <path class="cls-5" d="M404.99,623.91l-2.94,11.23c-.24.92-.19,1.16-.85,1.31-.43.1-1.11.25-1.2-.07-.13-.44.4-1.65.5-2.05l3.3-12.46c.13.88.41,1.72,1.19,2.04h0Z"></path>
  <path class="cls-5" d="M411.83,322.19l2.75-16.34c.86,5.69-.55,10.82-2.75,16.34Z"></path>
  <path class="cls-5" d="M424.24,638.61c-1.68-5.29-3.45-10.39-2.8-15.95,2.47,4.97,4.06,10.22,2.8,15.95Z"></path>
  <path class="cls-5" d="M443.87,298.35l-1.61-.4c-1.23-4.25-3.23-8.59-1.31-13.78,1.64,5.26,1.8,9.7,2.92,14.18h0Z"></path>
  <path class="cls-5" d="M825.75,415.42l.12-1.38c4.74,1.6,9.79,1.81,14.5,4.53-5.73.82-10.31-1.49-14.62-3.15Z"></path>
  <path class="cls-5" d="M807,262.98l4.36.17c-.98.37-2.52.24-3.26,2.23,3.07.76,5.04.54,7.18,3.31-3.28-.39-6.66-1.39-9.27-3.81l-.46-1.16-.23-1.58c.41.17.63.28.71.37l.47.5c.12-.09.32-.04.5-.03h0Z"></path>
  <path class="cls-5" d="M580.45,577.01c-2.69-3.01-6.4-4.98-8.51-9.41,3.9,2.12,5.87,5.56,9.13,8.43.12.41.35.68.54.76.91.39,1.72.77,2.5,1.79-1.43.73-2.19.03-2.78-.82-.32-.46-.66-.63-.88-.75h0Z"></path>
  <path class="cls-3" d="M381.69,322.96c-2.95-3.25-6.34-6.74-7.31-11.36,3.37,3.4,5.61,6.7,7.31,11.36Z"></path>
  <path class="cls-5" d="M686.89,274.44l.19-1.52c3.2-.25,6.14-2.29,10.52-1.6-3.15,2.71-7.25,2.51-10.7,3.12h-.01Z"></path>
  <path class="cls-5" d="M542.33,333.32l-1.3-.53,9.07-7.41c.46.25,1.21.13,1.04.17-2,3.62-5.91,5.28-8.81,7.77Z"></path>
  <path class="cls-6" d="M335.9,477.18c.7.15,1.46.46,1.93,1.04.3.37.54,1.27.28,1.65l-1.37,1.96c-2.06-.18-3.39-2.03-5.69-1.68l-2.13.33-.29-1.38,2.45.06c1.84.05,3.18-1.37,4.83-1.98h0Z"></path>
  <path class="cls-6" d="M367.65,538.77l.33.87.53,5c-3.52-.81-5.16-1.5-5.26-4.74,1.57-.02,3.56-.18,4.41-1.14h0Z"></path>
  <path class="cls-5" d="M805.47,377.37l-1.33-.17c.72-3.74,1.84-8.06,5.34-11.38l-4.01,11.55h0Z"></path>
  <path class="cls-5" d="M458.96,629.06l1.46.05-1.15,12.77c-3.1-4.71-.44-8.85-.31-12.82Z"></path>
  <path class="cls-5" d="M395.27,623.66l-4.46,9.38c-.38-.36-.81-.64-.76-.59l3.77-9.05c.47-.97,1.46-.47,1.44.26h.01Z"></path>
  <path class="cls-6" d="M530.06,503.58c.56,1.43,1.57,3.23,1.07,4.17-.59,1.12-2.08,2.12-3.31,2.03.06-1.37-1.32-2.66-1.86-3.79-.13-.28-.11-.79-.05-1.32,1.09.35,3.44-.18,4.15-1.1h0Z"></path>
  <path class="cls-5" d="M328.61,479.1l.29,1.38c-2.81.43-5.86,1.36-9.56.45,3.24-2.01,6.38-1.91,9.27-1.84h0Z"></path>
  <path class="cls-5" d="M805.24,246.18h-1.28c1.24-3.84,2.43-8.44,6.6-11.69-.68,4.68-3.69,7.94-5.32,11.69h0Z"></path>
  <path class="cls-6" d="M512.79,538.65c-.18,1.44-.51,3.4-1.58,4.34s-3.2.04-4.04-.89l-.18-2.72c.36-.17.72-.1.92-.06l4.88-.67h0Z"></path>
  <path class="cls-5" d="M475.96,559.28c-.29-.19-.83-.28-1.24-.32-1.46-2.66-3.76-5.22-3.55-9.49,2.8,2.99,3.52,6.5,4.79,9.8h0Z"></path>
  <path class="cls-5" d="M273.31,386.31l-7.86-3.86.02-1.12,8.14,3.51c1.03.52.41,1.54-.3,1.48h0Z"></path>
  <path class="cls-5" d="M544.82,342.93v-1.33c2.91-.71,5.42-3.71,9.94-3.36-2.76,2.65-6.64,3.38-9.94,4.69h0Z"></path>
  <path class="cls-6" d="M479.27,560.75c-.26,1.34-.57,3.31-1.92,3.88-.94.4-2.58.13-3.53-.57,1.13-1.08.88-3.67.9-5.1.41.04.95.13,1.24.32.91.59,2.16,1.53,3.31,1.47h0Z"></path>
  <path class="cls-5" d="M370.18,337.54l-.16,1.37c-3.24-1.33-6.53-2.87-9.42-5.64,4.34-.39,6.98,3.32,9.57,4.27h.01Z"></path>
  <path class="cls-5" d="M428.06,367.24h-1.89l-.08-10.24c.91.16,1.88,1.09,1.88,1.88l.09,8.36Z"></path>
  <path class="cls-5" d="M429.86,312.12c-2.9-1.43-5.23-3.56-6.66-7.59,2.21,2.02,4.79,3.52,6.66,7.59Z"></path>
  <path class="cls-3" d="M766.2,416.11l.85,1.27c-2.56.72-5.01,2.15-7.84,2.14l-.42-1.18,7.41-2.24h0Z"></path>
  <path class="cls-5" d="M260.47,433.05l-8.09-3.51c.17-.54-.03-1.09,0-1.13,3.17.41,6.42,2.22,8.55,4.07l.58.5c.69.6,1.77.87,2.48,1.52.25.22.49.41,1.01.47,2.3.96.15,3.32-.98,1.04.02-.51-.29-.98-.52-1.02-1.01-.17-1.91-.65-2.5-1.51-.13-.19-.3-.36-.53-.45v.02Z"></path>
  <path class="cls-6" d="M404.1,558.19l1.56.05.43,3.45-3.96.4c-.15-.29-.6-.95-.92-.97l-.09-1.34c.66-.72,1.84-1.61,2.99-1.58h0Z"></path>
  <path class="cls-5" d="M409.01,571.73c-1.43-3.05-1.84-5.73-1.76-9.17,2.79,1.8,3.69,5.94,1.76,9.17Z"></path>
  <path class="cls-5" d="M432.02,372.13l.12-1.11c3.75-2.23,5.51-6.17,7.64-10.1-.15,5.1-3.57,9.57-7.76,11.21Z"></path>
  <path class="cls-5" d="M426.12,369.99c-.26.93-1.07,1.59-1.76,1.92-1.03.5-2.26.29-2.4-.97.25.17,1.13.22,1.55.03.56-.26-.01-1.19-.47-1.9l-1.06-1.67c-.53-.83,1.08-2.32,1.76-1.07s.94,3.15,2.39,3.65h-.01Z"></path>
  <path class="cls-5" d="M321.11,900.95c-.29,2.18.81,4.73-1.91,6.17l-.13-6.18h2.04Z"></path>
  <polygon class="cls-3" points="812.2 392.64 811.84 391.65 825.42 377.93 826.07 378.58 812.2 392.64"></polygon>
  <path class="cls-3" d="M272.57,465.43c-1.28,1.64-2.7,3.35-5.77,3.58,1.58-1.56,1.95-3.08,5.77-3.58Z"></path>
  <path class="cls-5" d="M450.3,580.15c-1.75-.91-2.67-2.95-3.4-4.56.29-.26.7-.69.68-.68,1.95.42,2.19,2.59,3.32,3.63.41.94-.36,1.51-.61,1.61h0Z"></path>
  <path class="cls-3" d="M725.99,365.02l-.02,1.92c-1.64.27-3.72.16-4.98-.93v-1.02l5,.03h0Z"></path>
  <path class="cls-3" d="M816.98,261.7l.03,1.34-5.64.1-4.36-.17c.04-.26.15-.97.03-1.26,3.26.23,6.73.7,9.94-.02h0Z"></path>
  <path class="cls-6" d="M377.02,463.01l-.26,1.63c-1.99-1.25-4.75-.41-6.92-.62l-.08-1.74,7.26.73h0Z"></path>
  <path class="cls-3" d="M382.2,463.62l.19,1.71c-1.7-.8-3.94.39-5.64-.68l.26-1.63,5.18.61h.01Z"></path>
  <path class="cls-5" d="M608.24,409.15c-1.35.57-2.4.7-2.68.92-.83.67-2.01-.28-1.16-1.09.53-.5,1.38-1.01,2.52-1.49,1.5-1.68,3.24.73,1.32,1.66h0Z"></path>
  <polygon class="cls-6" points="731.88 364.55 732.01 365.94 725.98 366.94 725.99 365.02 731.88 364.55"></polygon>
  <path class="cls-5" d="M613.75,405.28c-.8,1.86-2.53.1-1.17-.52,1.05-.76,1.38-1.04,2.27-1.08.96-.04.56.07.7.5.58,1.78-.89,1.67-1.8,1.1h0Z"></path>
  <path class="cls-3" d="M483.15,619.19c-2.26-.52-2.89-1.74-3.79-2.96,2.46.07,3.33,1.17,3.79,2.96Z"></path>
  <path class="cls-5" d="M600.9,472.84c-1,2.21-3.89.46-1.07-.94.87-1.98,3.48-.42,1.07.94Z"></path>
  <path class="cls-5" d="M794.86,254.07c-.74-.13-1.8-2.33-1.58-2.92.62-.8,2.4-.18,2.72.4.45.81-.02,2.73-1.14,2.53h0Z"></path>
  <path class="cls-6" d="M391.34,372.28c.46-.79,1.54-.32,1.65.23.18.86,0,1.94-.39,2.43-.36.44-2.46.19-2.39-.37s.78-1.69,1.13-2.29h0Z"></path>
  <path class="cls-5" d="M478.01,467.16c-.45-.07-1.08-.64-1.54-1.13-.54-.58-.1-1.36.24-1.98,1.17-.25,1.32.8,1.31,1.42v1.7h0Z"></path>
  <path class="cls-5" d="M326.47,469.34c-.01-.43,1.67-.59,2-.35s.8.58.54,1.47c-.14.49-1.01.75-1.44.55-.37-.17-1.08-.65-1.11-1.68h0Z"></path>
  <path class="cls-6" d="M384,484.02c.49.04.92.49,1,1l-3.05,1.01.35-1.95c.49-.15,1.2-.1,1.7-.06h0Z"></path>
  <path class="cls-3" d="M422.09,421.03h-1.07c-.27-1.05-1.1-2.08-.39-3.48,2,.88,1.65,2.44,1.47,3.48h0Z"></path>
  <circle class="cls-5" cx="394" cy="612" r="1.11"></circle>
  <path class="cls-3" d="M491.01,479.94l-.02,1.05c-.62.09-1.45-.13-2.08-.2l-.11-1.93c.85-.16,1.62,1.08,2.22,1.08h-.01Z"></path>
  <path class="cls-5" d="M594.02,477.61c.67-1.31,1.9-.54,2.01-.08.18.77-.19,1.22-.56,1.51-.63.5-2.14-.08-1.45-1.44h0Z"></path>
  <path class="cls-5" d="M279.94,545.64c.75-1.32,1.88-.6,2.07-.14.23.59.03,1.18-.51,1.51-.39.23-1.74.16-1.55-1.37h-.01Z"></path>
  <path class="cls-5" d="M569.91,565.55c.86-1.36,1.95-.46,2.1-.03.22.61.02,1.18-.51,1.5-.37.22-1.8.16-1.58-1.47h0Z"></path>
  <circle class="cls-5" cx="539" cy="518" r="1.11"></circle>
  <circle class="cls-5" cx="422" cy="303" r="1.11"></circle>
  <path class="cls-3" d="M445.22,622.75c-1.05,2.8-3.77.07-.97-.97,1.14-1.21,2.18-.16.97.97Z"></path>
  <path class="cls-6" d="M439.5,312c-.67.24-1.19-.02-1.53-.49-.44-.62-.06-1.48.6-1.72.43-.15,1.46.09,1.4,1.22-.03.62.28.88.56.99.64.26.47.96-.16.99l-.88-1h.01Z"></path>
  <path class="cls-5" d="M525.13,590.23l.19,1.82-2.69-.22c.01-.65.41-1.45,1-1.63s1.09-.03,1.5.03h0Z"></path>
  <path class="cls-6" d="M494.13,479.95l-.16,1.68c-.9-.14-1.93-.79-2.98-.65l.02-1.05h3.12v.02Z"></path>
  <path class="cls-3" d="M386.1,483.01l.12,1.91-1.22.1c-.08-.5-.51-.96-1-1,.47-.62,1.5-.83,2.11-1.01h0Z"></path>
  <path class="cls-3" d="M440.33,630.09c-.52-2.28.82-4.14,2.59-5.06l-2.59,5.06Z"></path>
  <path class="cls-5" d="M341.03,344.03c.04-.85.22-1.62.67-2.33.24.78.23,2.05-.67,2.33Z"></path>
  <path class="cls-5" d="M330.94,354.41l.06-1.4c.45-.1.79.07,1,.5.17.35.06,1.03-.34,1.39-.23.2-.74.09-.72-.48h0Z"></path>
  <polygon class="cls-5" points="421.5 363.01 421.52 363.66 421.52 364.34 421.5 364.99 421.48 364.34 421.48 363.66 421.5 363.01"></polygon>
  <path class="cls-5" d="M274.97,453.44l.11-1.59c.33.17.65.28.91.65.21.31-.03,1.13-.29,1.36-.21.19-.67.15-.73-.42h0Z"></path>
  <path class="cls-5" d="M431.02,371.06c-.54-.03-.85-.23-1.03-.59-.44-.87.26-1.64.99-1.54l.05,2.12h0Z"></path>
  <path class="cls-5" d="M292.24,397.87l-.16-1.72c1.38-.34,1.45,1.85.16,1.72Z"></path>
  <path class="cls-5" d="M1028.09,157.03c0,.45-.23.76-.59.97s-1.11,0-1.37-.33c-.21-.25-.12-.76.42-.8l1.54.17h0Z"></path>
  <path class="cls-5" d="M401.11,559.77l.09,1.34-1.68-.13c-.61-.05-.65-.76-.03-1,.36-.14,1.4.03,1.62-.21Z"></path>
  <path class="cls-3" d="M508.16,605.21l-1.36-.66c.47-.92,1.57-.24,1.36.66Z"></path>
  <path class="cls-3" d="M459.21,609.98c2.36,3.16,5.02.14,5.81,4.25-1.4.42-2.27,1.55-2.6,3.46l-2,11.43-1.46-.05c.19-5.85,1.96-10.99,3.01-16.24-4.92,3.82-7.01,6.88-8.99,10.92l-1.48.02c1.5-3.88,3.74-7.26,6.91-11.12-5.84.99-7.94,5.21-12.47,7.72,3.24-5.35,8.33-8.19,13.28-10.39h-.01Z"></path>
  <path class="cls-3" d="M448.85,323.37l-.93-1.34c.78-.06.69,1,.93,1.34Z"></path>
  <rect class="cls-5" x="958.15" y="323.14" width=".71" height=".71" transform="translate(51.99 772.52) rotate(-45)"></rect>
  <rect class="cls-5" x="359.15" y="332.14" width=".71" height=".71" transform="translate(-129.82 351.59) rotate(-45)"></rect>
  <path class="cls-3" d="M455.91,513.03l-.55-1.54c.2.48.54,1.07.55,1.54Z"></path>
  <path class="cls-5" d="M327.01,492.52l2.5-2.51.48.48-1.98,2.05c-.31.5-.74.52-1-.02Z"></path>
  <path class="cls-3" d="M481.99,481.12c-.02-.74.55-1.03,1.22-.95-.3.34-.77.83-1.22.95Z"></path>
  <circle class="cls-5" cx="597" cy="475" r=".86"></circle>
  <path class="cls-5" d="M269.47,429c-.64-.25-.48-.96.16-.99l1.31,1.39c-.54-.8-1.34,0-.54.54-.55-.68-.79-.86-.93-.95h0Z"></path>
  <path class="cls-5" d="M927.99,251.96c.06-.65.79-.74,1.35-.6-.4.24-.89.53-1.35.6Z"></path>
  <rect class="cls-6" x="373.15" y="418.14" width=".71" height=".71" transform="translate(-186.53 386.68) rotate(-45)"></rect>
  <rect class="cls-5" x="610.15" y="406.15" width=".71" height=".71" transform="translate(-108.63 550.75) rotate(-45)"></rect>
  <rect class="cls-6" x="1043.15" y="152.14" width=".71" height=".71" transform="translate(197.8 782.54) rotate(-45)"></rect>
  <path class="cls-4" d="M454.83,474.38c-5.79,7.47-12.62,12.43-20.07,18.72-7.62-5.99-14.88-11.62-20.57-19.17-4.61-6.12-5.11-14.91.8-19.8,3.27-2.7,7.5-3.09,11.56-1.49,3.01,1.18,5.86,4.31,8.04,7.86,2.59-3.93,5.29-6.67,7.91-7.76,4.23-1.76,8.85-1.27,12.09,1.71,5.6,5.15,5.02,13.73.23,19.92h.01Z"></path>
  <path class="cls-3" d="M309.88,953.02c1.16,2.5,1.98,4.45,3.07,7.5l7,19.49c.72,2,1.68,3.51,1.42,5.34-.04.25-.06.63.45.96.12-.01-.02,1.88-1.2.47-.03-.18-.15-.4-.32-.56l-1.6-.1-20.44-38.36c-8.46-15.87-20.88-28.07-35.15-38.88l-19.37-14.68c-19.72-16.19-32.65-37.93-37.83-63.05-9.22-44.75,6.35-88.78-18.22-124.58,61.4,17.26,97.7,66.47,101.57,128.85l2.8,45.21c-12.65-35.25-28.96-68.6-56.46-92.62l-1.33.87c21.84,30.86,38.46,64.44,51.2,100.54,7.72,21.88,14.89,43.09,24.4,63.59h.01ZM234.13,786.37c-.99-1.25-2.41.41-.94,1.15l.94-1.15ZM234.58,786.83l-1.11.92.76.79.96-1.15c-.16-.23-.39-.41-.62-.57h0Z"></path>
  <path class="cls-4" d="M968.5,791.07c4.64,7.17.35,16.11-6.83,19.77-16.36,8.34-44.07,5.42-45.24-12.36-.13-6.16,3.64-11.54,9.38-14.07l28.99.76c4.76.12,10.7,1.27,13.7,5.89h0Z"></path>
  <path class="cls-4" d="M953.96,745.36c-2.95,6.1-9.4,8.13-15.21,7.56-13.11-1.28-18.37-18.24-14.92-32.95,1.66-7.05,7.38-11.67,13.72-12.32,6.98-.72,13.33,2.73,16.41,9.48,3.9,8.57,4.36,19.2,0,28.23h0Z"></path>
  <path class="cls-4" d="M740.25,912.98c-8.03,10.15-23.57,11.77-32.97,2.8-12.49-11.92-12.62-41.23-.96-53.52,9.33-9.83,25.49-7.58,33.66,2.94l.27,47.78Z"></path>
  <path class="cls-4" d="M571.51,778.35c-15.05,3.04-25.29-8.14-28.17-23.88-3.53-19.28-.47-44.44,18.29-46.6,8.42-.97,15.34,2.42,20.23,9.41,11.75,16.81,10.4,56.88-10.36,61.07h.01Z"></path>
  <path class="cls-4" d="M926.78,880.71l-36.05.28c-.03-7.68,2.35-15.1,7.73-20.47,6.83-6.82,17.95-6.32,23.8,1.16,3.58,5.52,4.98,11.42,4.52,19.03h0Z"></path>
  <path class="cls-4" d="M617.24,1004.3c-6.94-7.74-4.86-19.41,3.75-24.28,7.12-4.03,15.95-1.3,19.95,4.75,4.44,6.72,3.21,15.87-2.78,20.84-5.78,4.79-15.23,5.03-20.92-1.31Z"></path>
  <rect class="cls-4" x="1029.15" y="158.15" width=".71" height=".71" transform="translate(189.46 774.4) rotate(-45)"></rect>
  <path class="cls-4" d="M820.04,1049.57c5.6-1.66,10.31,1.84,11.55,6.38,1.42,5.19-1.03,10.46-6.31,11.9-4.71,1.28-9.79-1.1-11.49-6.14-1.49-4.42.32-10.38,6.25-12.13h0Z"></path>
  <path class="cls-4" d="M873.42,1058.41l-8.44.23.12-8.83c2.87-.68,6.04-.63,9.11-.06,2.47.46,3.4,2.64,3.21,4.72-.18,1.93-1.46,3.86-4,3.93h0Z"></path>
  <path class="cls-4" d="M734.42,1061.27c-3.11.61-5.63.4-9.16.08l4.69-10.19,4.47,10.11Z"></path>
  <path class="cls-4" d="M779.93,1058.4c-2.96,1.21-6.01,1.07-8.94.65-.29-2.84-.94-6.36.32-9.03,4.93-1.6,10.18-.62,10.81,3.56.23,1.53.02,3.92-2.19,4.82Z"></path>
  <rect class="cls-3" x="811.16" y="400.14" width=".71" height=".71" transform="translate(-45.51 691.13) rotate(-45)"></rect>
  <rect class="cls-4" x="526.16" y="339.15" width=".71" height=".71" transform="translate(-85.85 471.74) rotate(-45)"></rect>
  <rect class="cls-4" x="459.16" y="320.15" width=".71" height=".71" transform="translate(-92.04 418.8) rotate(-45)"></rect>
  <rect class="cls-4" x="346.16" y="519.14" width=".71" height=".71" transform="translate(-265.85 397.18) rotate(-45)"></rect>
  <polygon class="cls-4" points="289.66 403.48 290.34 403.48 290.99 403.5 290.34 403.52 289.66 403.52 289.01 403.5 289.66 403.48"></polygon>
  <polygon class="cls-4" points="591.5 490.01 591.52 490.66 591.52 491.34 591.5 491.99 591.48 491.34 591.48 490.66 591.5 490.01"></polygon>
  <polygon class="cls-4" points="277.5 461.01 277.52 461.66 277.52 462.34 277.5 462.99 277.48 462.34 277.48 461.66 277.5 461.01"></polygon>
  <polygon class="cls-4" points="473.66 610.48 474.34 610.48 474.99 610.5 474.34 610.52 473.66 610.52 473.01 610.5 473.66 610.48"></polygon>
  <rect class="cls-4" x="470.15" y="612.14" width=".71" height=".71" transform="translate(-295.29 512.09) rotate(-45)"></rect>
  <path class="cls-5" d="M958.25,348.06c.03.7-.69.79-.81,1.04-.27.56-1.15,1.12-1.49.37-.58-1.27.54-1.41.78-1.75l1.52.33h0Z"></path>
  <rect class="cls-4" x="530.15" y="512.15" width=".71" height=".71" transform="translate(-207.01 525.24) rotate(-45)"></rect>
  <rect class="cls-4" x="531.15" y="509.15" width=".71" height=".71" transform="translate(-204.6 525.06) rotate(-45)"></rect>
  <rect class="cls-4" x="1020.15" y="154.14" width=".71" height=".71" transform="translate(189.65 766.86) rotate(-45)"></rect>
  <path class="cls-4" d="M400.97,605.95c1.25.14.88,1.48-.21,1.2-2.25.36-1.66-2.04.21-1.2Z"></path>
  <polygon class="cls-4" points="332.66 484.48 333.34 484.48 333.99 484.5 333.34 484.52 332.66 484.52 332.01 484.5 332.66 484.48"></polygon>
</svg>